<?xml version="1.0" standalone="no"?>
<!DOCTYPE svg PUBLIC "-//W3C//DTD SVG 20010904//EN"
 "http://www.w3.org/TR/2001/REC-SVG-20010904/DTD/svg10.dtd">
<svg version="1.0" xmlns="http://www.w3.org/2000/svg"
 width="197.000000pt" height="319.000000pt" viewBox="0 0 197.000000 319.000000"
 preserveAspectRatio="xMidYMid meet">

<g transform="translate(0.000000,319.000000) scale(0.100000,-0.100000)"
fill="#000000" stroke="none">
<path d="M1300 3130 c-16 -39 -64 -80 -134 -116 -185 -93 -280 -254 -263 -442
6 -56 55 -192 70 -192 6 0 68 26 123 51 65 29 153 107 195 172 79 122 108 254
84 388 -11 68 -47 169 -58 169 -3 0 -10 -14 -17 -30z"/>
<path d="M830 2449 c111 -89 176 -185 209 -309 40 -152 37 -251 -15 -460 -42
-167 -74 -210 -74 -97 0 70 -20 135 -56 188 -31 45 -65 70 -134 96 -47 18 -67
20 -130 13 -203 -19 -283 -155 -246 -417 8 -51 7 -53 -15 -53 -43 0 -173 -51
-221 -86 -105 -75 -161 -215 -141 -350 14 -100 53 -176 129 -252 142 -142 325
-169 513 -75 30 15 59 29 63 31 5 2 8 -32 8 -75 0 -75 21 -178 55 -264 13 -35
12 -34 -48 25 -76 75 -141 109 -264 136 -54 12 -159 5 -169 -12 -9 -13 43 -83
95 -130 26 -23 75 -55 111 -72 58 -28 75 -31 155 -31 70 0 97 4 118 18 15 10
27 13 27 6 0 -10 77 -167 117 -239 l20 -35 86 -3 c66 -2 87 0 87 10 0 10 -113
296 -135 343 -3 6 29 10 87 10 80 0 101 4 150 27 115 54 197 162 217 288 6 35
9 65 7 67 -1 2 -15 -6 -30 -18 -23 -18 -47 -23 -129 -29 -82 -5 -112 -12 -153
-33 -85 -43 -145 -127 -159 -222 l-8 -49 -19 59 c-78 246 -66 388 69 809 47
149 78 229 153 406 17 40 43 108 123 320 26 69 60 124 89 144 29 21 82 20 118
0 61 -37 116 -176 91 -231 -14 -30 -14 -29 8 -29 11 0 22 8 24 18 3 10 1 18
-3 18 -5 0 -4 17 2 37 17 61 -1 146 -44 205 -16 22 -9 29 43 34 112 13 202
113 211 234 l3 45 -46 -2 c-61 -2 -125 -31 -172 -78 -44 -44 -60 -72 -77 -133
-10 -39 -14 -43 -33 -37 -82 27 -144 16 -199 -33 -49 -43 -100 -148 -119 -240
-10 -47 -17 -62 -29 -60 -11 3 -17 23 -21 83 -8 92 -45 217 -88 290 -38 67
-111 146 -168 184 -52 35 -82 42 -43 10z m-99 -661 c113 -33 189 -173 189
-347 0 -42 -8 -79 -30 -131 -16 -40 -30 -79 -30 -86 0 -17 -16 -18 -29 -1
-101 129 -195 178 -346 181 l-60 1 -7 35 c-10 55 3 191 23 230 22 45 74 95
119 114 42 18 119 20 171 4z"/>
<path d="M415 2220 c-22 -128 76 -285 196 -313 44 -11 79 30 79 91 0 105 -40
164 -150 221 -101 53 -116 53 -125 1z"/>
<path d="M1539 1819 c-131 -20 -223 -81 -277 -184 -23 -43 -27 -62 -27 -140 0
-78 4 -97 27 -145 39 -79 103 -142 184 -181 61 -29 78 -32 154 -32 113 -1 191
34 267 116 74 81 96 146 91 262 -5 105 -20 143 -81 204 -51 52 -72 63 -157 84
-87 21 -126 25 -181 16z"/>
</g>
</svg>
