<?xml version="1.0" standalone="no"?>
<!DOCTYPE svg PUBLIC "-//W3C//DTD SVG 20010904//EN"
 "http://www.w3.org/TR/2001/REC-SVG-20010904/DTD/svg10.dtd">
<svg version="1.0" xmlns="http://www.w3.org/2000/svg"
 width="764.000000pt" height="838.000000pt" viewBox="0 0 764.000000 838.000000"
 preserveAspectRatio="xMidYMid meet">

<g transform="translate(0.000000,838.000000) scale(0.100000,-0.100000)"
fill="#000000" stroke="none">
<path d="M3680 8200 l0 -180 252 0 251 0 179 180 180 180 -431 0 -431 0 0
-180z"/>
<path d="M4710 7992 l0 -389 -26 -24 -26 -24 -489 -3 -489 -3 0 -170 0 -170
335 3 c184 2 335 0 335 -4 0 -3 3 -13 6 -22 4 -12 0 -16 -15 -16 -23 0 -29 15
-8 23 6 3 -138 6 -320 6 -290 1 -333 -1 -333 -14 0 -13 42 -15 314 -15 314 0
314 0 319 -22 7 -26 1 -38 -19 -38 -8 0 -14 -10 -14 -24 0 -13 -6 -24 -12 -23
-7 0 -172 -1 -365 -1 -342 -2 -353 -3 -353 -21 0 -11 5 -23 10 -26 6 -4 10
-85 10 -211 l0 -205 -142 3 -143 3 -3 278 -2 277 -75 0 -75 0 -3 -197 -2 -198
-3 198 -2 197 -399 0 -400 0 -4 -42 -4 -43 -1 43 -2 42 -84 0 c-72 0 -85 -3
-89 -17 -4 -17 -5 -17 -6 0 -1 13 -10 17 -41 17 -22 0 -40 -4 -40 -10 0 -5 -5
-10 -11 -10 -5 0 -7 4 -4 10 4 6 -248 9 -700 10 l-706 0 1 -196 c1 -108 -1
-198 -4 -202 -3 -3 -6 85 -6 196 l0 202 -60 0 -60 0 0 -243 c0 -162 4 -247 11
-254 16 -16 -6 -26 -55 -27 l-41 -1 0 -49 c0 -31 -5 -51 -12 -53 -7 -3 -13 0
-13 6 0 6 3 11 8 11 4 0 6 18 4 40 l-4 40 -199 0 -199 0 0 -357 c0 -204 4
-352 9 -344 6 9 11 10 15 2 4 -6 16 -11 27 -11 10 0 19 -5 19 -11 0 -7 -14
-10 -35 -7 l-35 4 0 -49 c0 -44 2 -48 20 -42 11 4 20 2 20 -4 0 -6 -9 -11 -20
-11 -24 0 -28 -35 -4 -44 8 -3 12 -10 9 -16 -4 -6 -11 -8 -16 -5 -5 4 -9
-1095 -9 -2864 l0 -2871 1979 0 c1877 0 1980 1 1984 18 4 16 5 16 6 0 1 -16
25 -17 315 -18 l315 0 4 38 4 37 1 -37 2 -38 135 0 135 0 0 124 c0 90 -3 126
-12 129 -10 4 -10 6 0 6 15 1 18 276 2 286 -5 3 -10 17 -10 31 0 13 5 24 10
24 6 0 10 117 10 330 l0 330 1155 0 1155 0 6 24 c4 18 10 22 27 18 l21 -5 -22
-8 c-45 -17 -21 -29 58 -29 78 0 80 1 80 24 0 13 -6 27 -12 29 -10 4 -10 6 0
6 9 1 12 219 12 1056 l0 1055 140 0 139 0 0 355 c1 348 0 355 -19 355 -12 0
-20 7 -20 16 0 11 6 14 20 9 19 -6 20 -2 20 79 l0 85 -42 4 -43 4 43 1 c37 2
42 5 42 26 0 23 -4 25 -52 29 l-53 3 53 2 52 2 0 86 0 86 -70 -4 c-39 -2 -70
0 -70 5 0 4 32 7 70 7 l70 0 0 65 0 65 -95 0 c-57 0 -95 4 -95 10 0 6 38 10
95 10 80 0 95 3 95 16 0 13 -15 15 -100 12 -75 -2 -100 0 -100 10 0 9 27 12
100 12 93 0 100 1 100 20 0 13 -7 20 -20 20 -18 0 -20 7 -20 75 l0 74 -122 4
-123 3 123 2 122 2 0 55 0 54 -142 4 -143 3 143 2 142 2 0 50 0 50 -169 0
c-136 0 -170 3 -174 14 -3 8 -3 17 0 20 4 3 82 6 175 6 l168 0 0 115 0 115
-260 0 -260 0 0 25 0 25 260 0 260 0 0 457 c0 451 0 456 -19 439 -11 -10 -26
-16 -33 -13 -10 4 -10 6 -1 6 7 1 22 9 33 18 20 17 20 29 20 625 0 534 -2 608
-15 608 -8 0 -15 5 -15 10 0 6 7 10 15 10 12 0 15 13 15 61 l0 60 -52 -2 c-29
-2 -52 0 -50 4 1 4 2 12 2 17 0 6 23 10 50 10 l50 0 0 50 0 50 -95 0 c-92 0
-95 1 -94 23 1 16 2 18 6 5 4 -16 17 -18 94 -18 l89 0 0 30 0 30 -120 0 -120
0 0 190 0 190 -349 0 c-270 0 -350 -3 -354 -12 -4 -10 -6 -10 -6 0 -1 9 -56
12 -240 12 -182 0 -241 -3 -244 -12 -4 -10 -6 -10 -6 0 -1 9 -153 12 -726 12
l-725 0 0 -388z m1578 271 c-10 -2 -28 -2 -40 0 -13 2 -5 4 17 4 22 1 32 -1
23 -4z m-140 -20 c-10 -2 -26 -2 -35 0 -10 3 -2 5 17 5 19 0 27 -2 18 -5z
m-65 -10 c-7 -2 -19 -2 -25 0 -7 3 -2 5 12 5 14 0 19 -2 13 -5z m-60 -20 c-7
-2 -21 -2 -30 0 -10 3 -4 5 12 5 17 0 24 -2 18 -5z m-65 -10 c-10 -2 -26 -2
-35 0 -10 3 -2 5 17 5 19 0 27 -2 18 -5z m-75 -20 c-7 -2 -21 -2 -30 0 -10 3
-4 5 12 5 17 0 24 -2 18 -5z m-65 -10 c-10 -2 -26 -2 -35 0 -10 3 -2 5 17 5
19 0 27 -2 18 -5z m-85 -20 c-7 -2 -19 -2 -25 0 -7 3 -2 5 12 5 14 0 19 -2 13
-5z m-50 -10 c-7 -2 -19 -2 -25 0 -7 3 -2 5 12 5 14 0 19 -2 13 -5z m-64 -60
c1 -25 2 -49 3 -52 5 -49 -36 -91 -89 -91 -27 0 -52 -10 -93 -39 -51 -36 -408
-221 -426 -221 -5 0 -20 -9 -34 -20 -14 -11 -33 -20 -42 -20 -9 0 -31 -12 -50
-27 l-33 -28 25 34 c48 67 236 247 301 289 125 81 384 221 410 221 23 1 25 -3
28 -46z m-856 -588 c-3 -9 -8 -14 -10 -11 -3 3 -2 9 2 15 9 16 15 13 8 -4z
m1487 11 c0 -2 -13 -6 -30 -8 -16 -3 -30 -1 -30 4 0 4 14 8 30 8 17 0 30 -2
30 -4z m-1551 -84 c-19 -21 -36 -37 -38 -35 -5 3 59 73 67 73 2 0 -11 -17 -29
-38z m-98 -115 l-24 -22 19 27 c10 14 21 24 23 22 3 -3 -6 -15 -18 -27z
m-2496 -259 c33 -7 68 -18 79 -24 17 -10 13 -14 -36 -38 -66 -32 -147 -43
-341 -45 -81 -1 -153 -4 -160 -6 -6 -3 -99 -21 -206 -40 -174 -32 -206 -41
-305 -87 -61 -28 -150 -80 -197 -115 -83 -61 -204 -179 -262 -254 -64 -84
-150 -111 -204 -65 l-28 24 23 46 c27 57 243 281 327 341 70 50 134 83 319
165 263 116 289 121 646 115 181 -2 307 -9 345 -17z m185 -58 c20 -6 21 -8 5
-8 -11 0 -33 4 -50 8 -27 7 -27 8 -5 8 14 0 36 -4 50 -8z m3053 -7 c-13 -2
-35 -2 -50 0 -16 2 -5 4 22 4 28 0 40 -2 28 -4z m-2958 -23 c25 -11 -1 -11
-35 0 -20 6 -21 8 -5 8 11 0 29 -3 40 -8z m1929 -45 c-9 -14 -18 -25 -21 -25
-5 0 5 18 20 38 17 22 18 13 1 -13z m-1817 9 c-3 -3 -12 -4 -19 -1 -8 3 -5 6
6 6 11 1 17 -2 13 -5z m1663 -21 c0 -18 -38 -20 -307 -14 -14 1 -23 7 -23 16
0 13 25 15 165 15 150 0 165 -2 165 -17z m350 -8 c-7 -9 -15 -13 -19 -10 -3 3
1 10 9 15 21 14 24 12 10 -5z m-1933 -1 c-3 -3 -12 -4 -19 -1 -8 3 -5 6 6 6
11 1 17 -2 13 -5z m68 -24 c13 -5 14 -9 5 -9 -8 0 -24 4 -35 9 -13 5 -14 9 -5
9 8 0 24 -4 35 -9z m80 -30 c13 -5 14 -9 5 -9 -8 0 -24 4 -35 9 -13 5 -14 9
-5 9 8 0 24 -4 35 -9z m1529 -15 c-9 -14 -18 -25 -21 -25 -5 0 5 18 20 38 17
22 18 13 1 -13z m-1429 -23 c-6 -7 -65 9 -65 17 0 5 15 3 34 -3 19 -6 33 -12
31 -14z m70 -18 l40 -15 -35 6 c-19 3 -39 10 -44 15 -13 13 -8 12 39 -6z
m2625 7 c0 -6 -47 -11 -105 -13 -79 -2 -105 0 -105 10 0 9 28 12 105 12 59 0
105 -4 105 -9z m-1309 -34 c-10 -9 -11 -8 -5 6 3 10 9 15 12 12 3 -3 0 -11 -7
-18z m-141 -1 c0 -32 -13 -46 -41 -46 -20 0 -29 5 -29 16 0 10 -6 14 -15 10
-10 -4 -15 1 -15 14 0 17 7 20 50 20 36 0 50 -4 50 -14z m-970 -83 c0 -7 -39
17 -46 28 -3 6 5 3 20 -6 14 -10 26 -19 26 -22z m3052 18 c-8 -5 -12 -84 -15
-296 l-2 -290 -3 297 c-1 230 1 297 11 301 17 6 24 -2 9 -12z m-1982 -1 c0 -5
-5 -10 -11 -10 -5 0 -7 5 -4 10 3 6 8 10 11 10 2 0 4 -4 4 -10z m2525 -11 c11
-16 1 -19 -13 -3 -7 8 -8 14 -3 14 5 0 13 -5 16 -11z m-625 -274 c0 -151 -3
-275 -7 -275 -5 0 -8 124 -8 275 0 151 3 275 8 275 4 0 7 -124 7 -275z m-2846
126 c-2 -3 -12 6 -21 20 -10 13 -33 42 -53 65 -19 23 -9 14 22 -19 32 -34 55
-63 52 -66z m1103 123 c-3 -3 -12 -4 -19 -1 -8 3 -5 6 6 6 11 1 17 -2 13 -5z
m870 -291 c-1 -54 -3 -12 -3 92 0 105 2 149 3 98 2 -51 2 -136 0 -190z m-60
-15 c-1 -46 -3 -9 -3 82 0 91 2 128 3 83 2 -46 2 -120 0 -165z m-1055 201 c3
-9 9 -9 25 0 46 24 71 13 180 -77 67 -55 88 -107 79 -193 -9 -79 -17 -96 -61
-141 -24 -24 -49 -40 -73 -43 -21 -4 -44 -9 -52 -12 -61 -22 -168 19 -290 110
-41 31 -80 57 -86 57 -6 0 -19 15 -29 34 -18 33 -18 34 5 67 40 58 133 150
175 171 69 36 120 47 127 27z m-835 -61 c-3 -8 -6 -5 -6 6 -1 11 2 17 5 13 3
-3 4 -12 1 -19z m307 -33 c-5 -12 -24 -15 -85 -15 -64 0 -79 3 -79 15 0 12 16
15 85 15 71 0 83 -2 79 -15z m-3297 -97 c-3 -8 -6 -5 -6 6 -1 11 2 17 5 13 3
-3 4 -12 1 -19z m183 -5 c0 -8 -51 -83 -56 -83 -2 0 6 20 18 45 19 40 38 58
38 38z m-213 -40 c-31 -2 -83 -2 -115 0 -31 2 -5 3 58 3 63 0 89 -1 57 -3z
m3250 -29 c-3 -3 -12 -4 -19 -1 -8 3 -5 6 6 6 11 1 17 -2 13 -5z m148 -14 c-3
-5 -17 -10 -31 -10 -13 0 -24 5 -24 10 0 6 14 10 31 10 17 0 28 -4 24 -10z
m1428 -17 c-45 -2 -122 -2 -170 0 -48 1 -11 3 82 3 94 0 133 -2 88 -3z m-1727
-68 c48 -18 89 -66 136 -156 31 -60 33 -70 33 -164 0 -83 -4 -110 -25 -160
-36 -89 -110 -150 -189 -154 -24 -1 -72 -8 -105 -16 -78 -19 -100 -19 -166 1
-110 33 -216 190 -227 336 -5 70 -3 80 20 120 41 70 105 124 197 167 130 61
216 68 326 26z m-2979 -7 c-3 -8 -6 -5 -6 6 -1 11 2 17 5 13 3 -3 4 -12 1 -19z
m4773 -28 c0 -6 -55 -10 -145 -10 -90 0 -145 4 -145 10 0 6 55 10 145 10 90 0
145 -4 145 -10z m-4958 -40 c-4 -27 -22 -44 -22 -20 0 6 -6 10 -14 10 -7 0
-16 9 -19 20 -4 17 0 20 27 20 30 0 32 -2 28 -30z m4928 -19 c0 -6 -54 -11
-120 -13 -91 -2 -120 0 -120 10 0 9 31 12 120 12 68 0 120 -4 120 -9z m-2910
-31 c0 -5 -7 -10 -15 -10 -8 0 -15 5 -15 10 0 6 7 10 15 10 8 0 15 -4 15 -10z
m3940 -36 c158 -26 270 -55 369 -95 157 -64 251 -131 251 -178 0 -30 -82 -111
-113 -111 -42 0 -75 20 -92 56 -12 25 -32 41 -93 69 -42 21 -95 44 -117 53
-22 8 -44 18 -50 22 -5 4 -68 26 -140 50 -71 23 -147 52 -168 64 -43 23 -77
74 -57 86 15 9 90 3 210 -16z m-6010 2 c0 -33 -13 -46 -44 -45 l-31 1 33 9
c27 8 32 14 27 29 -4 12 -2 20 4 20 6 0 11 -6 11 -14z m5720 4 c11 -7 3 -10
-30 -9 -34 0 -40 2 -25 9 27 12 37 12 55 0z m60 0 c0 -5 -10 -10 -22 -10 -19
0 -20 2 -8 10 19 13 30 13 30 0z m-3700 -16 c0 -2 -11 -4 -25 -4 -14 0 -25 4
-25 9 0 4 11 6 25 3 14 -2 25 -6 25 -8z m3508 -1 c-10 -2 -26 -2 -35 0 -10 3
-2 5 17 5 19 0 27 -2 18 -5z m-109 -27 c-2 -2 -17 -6 -34 -10 -22 -5 -26 -4
-15 4 14 9 59 15 49 6z m-5549 -26 c0 -5 -4 -10 -10 -10 -5 0 -10 5 -10 10 0
6 5 10 10 10 6 0 10 -4 10 -10z m2220 0 c0 -5 -13 -10 -29 -10 -17 0 -33 5
-36 10 -4 6 8 10 29 10 20 0 36 -4 36 -10z m3035 -130 c-27 -12 -43 -12 -25 0
8 5 22 9 30 9 10 0 8 -3 -5 -9z m-4055 -42 c0 -12 -8 -18 -23 -18 -29 0 -37 7
-30 26 8 20 53 14 53 -8z m3650 -35 c0 -26 -1 -26 -15 -7 -19 25 -19 34 0 34
10 0 15 -10 15 -27z m290 17 c-8 -5 -19 -10 -25 -10 -5 0 -3 5 5 10 8 5 20 10
25 10 6 0 3 -5 -5 -10z m-55 -30 c-27 -12 -43 -12 -25 0 8 5 22 9 30 9 10 0 8
-3 -5 -9z m-3188 -492 c-1 -90 -3 -17 -3 162 0 179 2 252 3 163 2 -90 2 -236
0 -325z m3123 462 c-8 -5 -19 -10 -25 -10 -5 0 -3 5 5 10 8 5 20 10 25 10 6 0
3 -5 -5 -10z m-70 -34 c0 -2 -8 -10 -17 -17 -16 -13 -17 -12 -4 4 13 16 21 21
21 13z m-2420 -49 c0 -8 -14 -12 -39 -12 -31 0 -37 2 -29 12 6 7 23 13 39 13
17 0 29 -5 29 -13z m2355 -7 c-3 -5 -12 -10 -18 -10 -7 0 -6 4 3 10 19 12 23
12 15 0z m-2355 -107 c0 -5 -60 -7 -132 -5 -242 4 -265 8 -65 10 108 1 197 -1
197 -5z m-1699 -1160 c9 -10 8 -13 -5 -13 -15 0 -16 48 -14 548 l3 547 2 -534
c2 -374 7 -538 14 -548z m-131 487 l0 -570 576 0 c512 0 575 -2 572 -15 -3
-14 -70 -16 -580 -18 l-576 -2 -6 35 c-11 64 -7 1140 4 1140 7 0 10 -197 10
-570z m-430 35 c0 -343 -3 -525 -10 -525 -7 0 -10 178 -10 515 l0 515 -30 0
-30 0 -3 -517 -2 -518 -3 528 -2 527 45 0 45 0 0 -525z m2335 436 c15 -6 20
-17 20 -49 0 -37 -2 -41 -20 -35 -11 4 -27 6 -35 6 -8 -1 -121 -2 -250 -3
l-235 -1 -3 31 c-6 62 -16 60 255 59 136 0 257 -4 268 -8z m2212 -183 c-2 -18
-4 -4 -4 32 0 36 2 50 4 33 2 -18 2 -48 0 -65z m-125 48 c3 3 9 1 13 -5 4 -7
-3 -11 -18 -11 -17 0 -26 7 -30 21 -5 19 -4 20 12 5 10 -9 20 -13 23 -10z
m1302 -101 c3 -8 1 -15 -4 -15 -6 0 -10 7 -10 15 0 8 2 15 4 15 2 0 6 -7 10
-15z m-4057 -1 c-3 -3 -12 -4 -19 -1 -8 3 -5 6 6 6 11 1 17 -2 13 -5z m450
-10 c-3 -3 -12 -4 -19 -1 -8 3 -5 6 6 6 11 1 17 -2 13 -5z m131 -1 c-15 -2
-42 -2 -60 0 -18 2 -6 4 27 4 33 0 48 -2 33 -4z m191 4 c-2 -1 -15 -11 -29
-22 l-25 -20 19 23 c11 12 24 22 29 22 6 0 8 -1 6 -3z m-379 -126 c0 -61 -4
-112 -9 -115 -13 -8 -801 -20 -801 -13 0 11 35 43 53 50 9 3 17 11 17 17 0 5
9 10 20 10 10 0 23 6 27 13 4 7 25 21 46 32 22 11 50 30 63 43 14 12 30 22 35
22 14 0 73 33 77 43 2 4 109 7 238 7 l234 0 0 -109z m300 57 c-13 -13 -19 -16
-15 -8 14 25 28 41 32 36 3 -3 -5 -15 -17 -28z m2250 20 c0 -5 -40 -8 -90 -8
-49 0 -90 3 -90 8 0 4 41 7 90 7 50 0 90 -3 90 -7z m-2280 -52 c0 -2 -8 -10
-17 -17 -16 -13 -17 -12 -4 4 13 16 21 21 21 13z m3257 -78 c-2 -18 -4 -6 -4
27 0 33 2 48 4 33 2 -15 2 -42 0 -60z m123 37 c0 -7 -14 -9 -35 -7 -19 2 -35
7 -35 11 0 4 16 7 35 7 19 0 35 -5 35 -11z m-1650 -10 c77 -40 80 -178 6 -237
-36 -30 -88 -23 -138 18 -59 48 -68 62 -68 101 0 42 23 77 69 109 41 28 89 31
131 9z m-1790 -19 c0 -3 -4 -8 -10 -11 -5 -3 -10 -1 -10 4 0 6 5 11 10 11 6 0
10 -2 10 -4z m3430 -77 c0 -5 -32 -9 -70 -9 -56 0 -68 3 -59 13 13 14 129 11
129 -4z m-2520 1 c0 -5 -5 -10 -11 -10 -5 0 -7 5 -4 10 3 6 8 10 11 10 2 0 4
-4 4 -10z m-1007 -21 c-9 -9 -6 -19 9 -40 32 -42 20 -92 -51 -213 -34 -58 -61
-107 -61 -111 0 -4 -27 -48 -59 -98 -90 -138 -137 -177 -217 -177 -73 0 -113
91 -64 145 10 11 21 32 25 46 4 14 25 48 47 75 57 70 363 384 373 384 5 0 4
-5 -2 -11z m2647 -29 c0 -6 -72 -10 -195 -10 -123 0 -195 4 -195 10 0 6 72 10
195 10 123 0 195 -4 195 -10z m860 -50 c0 -6 -35 -10 -85 -10 -50 0 -85 4 -85
10 0 6 35 10 85 10 50 0 85 -4 85 -10z m-2593 -42 c-3 -8 -6 -5 -6 6 -1 11 2
17 5 13 3 -3 4 -12 1 -19z m1661 -5 c-65 -2 -171 -2 -235 0 -65 1 -12 3 117 3
129 0 182 -2 118 -3z m142 -63 c0 -19 -7 -20 -260 -20 -210 0 -260 3 -260 13
0 8 3 17 7 20 3 4 120 7 260 7 246 0 253 -1 253 -20z m842 -67 c-2 -22 1 -34
10 -35 7 0 18 -2 23 -2 6 -1 15 -4 20 -8 13 -8 9 -1208 -4 -1208 -5 0 -12 16
-15 35 -4 19 -11 35 -16 35 -4 0 -11 14 -15 30 -4 17 -10 30 -13 30 -4 0 -13
14 -21 30 l-13 30 -569 -2 c-313 -2 -569 0 -569 5 0 4 252 7 560 7 308 0 560
3 560 8 0 12 -64 137 -72 140 -5 2 -8 10 -8 18 0 12 -74 14 -525 12 -415 -2
-525 0 -525 10 0 9 110 12 515 12 283 0 515 3 515 6 0 3 -10 20 -22 37 -13 18
-23 33 -23 35 0 2 -226 3 -502 2 -338 0 -503 3 -503 10 0 7 162 10 489 10 368
0 492 3 497 12 4 6 2 14 -4 16 -7 2 -12 10 -12 18 0 12 -70 14 -490 12 -322
-2 -490 0 -490 7 0 7 160 9 467 7 283 -1 470 1 476 7 6 6 2 21 -12 39 -11 17
-21 37 -21 44 0 36 -34 39 -493 36 -246 -2 -447 0 -447 5 0 4 200 7 445 7 436
0 445 0 445 20 0 10 -9 24 -20 30 -13 7 -161 10 -455 8 -239 -2 -434 1 -432 5
1 4 196 9 432 10 l430 2 2 215 c2 200 3 215 20 215 14 0 19 9 21 38 l3 37 182
-2 182 -3 -3 -32z m-2562 -15 c0 -5 -39 -8 -86 -8 -47 0 -83 3 -81 8 3 4 42 7
86 7 45 0 81 -3 81 -7z m1740 2 c0 -5 -4 -10 -10 -10 -5 0 -10 5 -10 10 0 6 5
10 10 10 6 0 10 -4 10 -10z m-3210 -65 l0 -35 -515 0 c-283 0 -515 2 -515 5 0
3 15 19 33 35 l32 29 483 1 482 0 0 -35z m1018 2 c2 -10 -3 -17 -12 -17 -10 0
-16 9 -16 21 0 24 23 21 28 -4z m672 -27 c0 -6 -42 -10 -105 -10 -63 0 -105 4
-105 10 0 6 42 10 105 10 63 0 105 -4 105 -10z m16 -48 c-2 -4 -60 -5 -128 -2
l-123 5 120 5 c122 5 139 4 131 -8z m-596 -12 c0 -5 -22 -10 -50 -10 -27 0
-50 5 -50 10 0 6 23 10 50 10 28 0 50 -4 50 -10z m610 -30 c0 -6 -52 -10 -135
-10 -83 0 -135 4 -135 10 0 6 52 10 135 10 83 0 135 -4 135 -10z m1680 0 c0
-6 -128 -10 -365 -10 -237 0 -365 4 -365 10 0 6 128 10 365 10 237 0 365 -4
365 -10z m-5073 -16 c-3 -3 -12 -4 -19 -1 -8 3 -5 6 6 6 11 1 17 -2 13 -5z
m-187 -24 c-8 -6 -22 -10 -30 -10 -8 0 -4 6 10 13 27 15 44 12 20 -3z m245 -8
c-6 -7 -45 9 -45 18 0 4 11 3 24 -3 14 -7 23 -13 21 -15z m6417 -2 c11 0 18
-5 16 -11 -2 -6 -7 -10 -11 -10 -4 1 -14 1 -22 1 -9 0 -15 9 -14 23 0 12 3 16
6 10 2 -7 14 -13 25 -13z m-6387 -10 c3 -5 1 -10 -4 -10 -6 0 -11 5 -11 10 0
6 2 10 4 10 3 0 8 -4 11 -10z m90 -48 c-6 -7 -45 9 -45 18 0 4 11 3 24 -3 14
-7 23 -13 21 -15z m2683 1 c-21 -2 -55 -2 -75 0 -21 2 -4 4 37 4 41 0 58 -2
38 -4z m562 -8 c0 -13 -26 -15 -175 -15 -107 0 -175 4 -175 10 0 6 69 11 173
13 94 1 173 4 175 5 1 1 2 -5 2 -13z m2650 -746 c0 -498 -3 -748 -10 -744 -7
4 -10 267 -10 756 0 498 3 748 10 744 7 -4 10 -267 10 -756z m-4419 714 c-12
-20 -14 -14 -5 12 4 9 9 14 11 11 3 -2 0 -13 -6 -23z m-1414 11 c-3 -3 -12 -4
-19 -1 -8 3 -5 6 6 6 11 1 17 -2 13 -5z m1283 -24 c0 -6 -218 -11 -610 -12
-555 -3 -712 1 -610 14 74 10 1220 8 1220 -2z m4950 -52 c0 -9 -20 -13 -65
-13 -62 0 -73 3 -58 18 12 13 123 8 123 -5z m-4853 -20 c-3 -8 -6 -5 -6 6 -1
11 2 17 5 13 3 -3 4 -12 1 -19z m3641 7 c1 -3 -187 -6 -418 -8 -275 -1 -420 1
-420 8 0 11 833 11 838 0z m-1826 -11 c-1 -3 -84 -6 -185 -7 l-182 -2 -70
-142 -70 -142 -102 0 -103 -1 0 149 c0 134 2 150 18 154 22 7 698 -3 694 -9z
m115 -26 c-3 -8 -6 -5 -6 6 -1 11 2 17 5 13 3 -3 4 -12 1 -19z m2911 -34 c-9
-9 -188 -10 -188 -1 0 4 44 7 97 7 53 0 94 -3 91 -6z m-4897 -70 c-5 -21 -9
-30 -10 -19 -1 24 10 67 15 62 3 -2 0 -22 -5 -43z m-121 6 c0 -7 -187 -10
-540 -10 -353 0 -540 3 -540 10 0 7 187 10 540 10 353 0 540 -3 540 -10z
m1100 -46 c0 -2 -9 -4 -20 -4 -11 0 -20 4 -20 9 0 5 9 7 20 4 11 -3 20 -7 20
-9z m-1112 -9 c-7 -7 -1040 -6 -1047 0 -2 3 233 5 524 5 291 0 526 -2 523 -5z
m109 -37 c-3 -7 -5 -2 -5 12 0 14 2 19 5 13 2 -7 2 -19 0 -25z m1049 -6 c6 -9
16 -12 23 -7 9 5 12 0 9 -15 -3 -22 -6 -23 -88 -21 -47 1 -86 4 -88 6 -2 2 4
17 12 33 24 46 99 48 132 4z m3584 -631 c0 -501 3 -661 12 -661 6 0 8 -3 5 -6
-4 -4 -12 -2 -19 4 -10 8 -12 146 -10 673 1 364 5 660 7 657 3 -3 5 -303 5
-667z m298 -312 l-3 -954 -5 962 c-3 529 -2 959 3 954 4 -4 6 -437 5 -962z
m-4941 894 c-3 -10 -5 -4 -5 12 0 17 2 24 5 18 2 -7 2 -21 0 -30z m5060 -1536
c-1 -276 -2 -47 -2 508 0 556 1 781 2 502 2 -280 2 -734 0 -1010z m-5080 1446
c-3 -10 -5 -2 -5 17 0 19 2 27 5 18 2 -10 2 -26 0 -35z m2073 -3 c12 -8 11
-10 -7 -10 -13 0 -23 5 -23 10 0 13 11 13 30 0z m103 -27 c-7 -2 -21 -2 -30 0
-10 3 -4 5 12 5 17 0 24 -2 18 -5z m-2186 -85 c-2 -18 -4 -6 -4 27 0 33 2 48
4 33 2 -15 2 -42 0 -60z m1423 72 c0 -6 -95 -10 -265 -10 -170 0 -265 4 -265
10 0 6 95 10 265 10 170 0 265 -4 265 -10z m-1540 -17 c0 -7 -336 -7 -745 0
-88 1 44 4 293 5 248 1 452 -1 452 -5z m1520 -58 c0 -5 -28 -67 -62 -137 l-63
-128 -200 0 -200 0 3 137 3 138 259 0 c167 0 260 -4 260 -10z m3957 -1743 c-1
-317 -2 -55 -2 583 0 638 1 898 2 577 2 -321 2 -843 0 -1160z m-4557 1611 c0
-121 -17 -113 -22 10 -2 65 0 87 10 87 9 0 12 -26 12 -97z m4627 -1631 c-1
-312 -2 -56 -2 568 0 624 1 880 2 567 2 -312 2 -822 0 -1135z m-6377 1674 c0
-3 -4 -8 -10 -11 -5 -3 -10 -1 -10 4 0 6 5 11 10 11 6 0 10 -2 10 -4z m30 -60
c0 -3 -4 -8 -10 -11 -5 -3 -10 -1 -10 4 0 6 5 11 10 11 6 0 10 -2 10 -4z
m1763 -105 c8 -8 -19 -11 -100 -11 -97 0 -133 6 -119 21 10 9 209 0 219 -10z
m-1696 -43 c-3 -8 -6 -5 -6 6 -1 11 2 17 5 13 3 -3 4 -12 1 -19z m-15 -50 c-7
-7 -12 -21 -12 -32 0 -10 -3 -17 -6 -13 -10 10 5 57 18 57 9 0 9 -3 0 -12z
m4806 -15 c-163 -2 -433 -2 -600 0 -167 1 -33 2 297 2 330 0 466 -1 303 -2z
m-1793 -17 l35 -15 0 -171 c0 -189 -20 -302 -63 -364 -12 -17 -22 -32 -23 -34
-2 -4 -109 -31 -112 -28 -1 2 6 61 17 132 10 71 22 194 25 274 4 80 9 162 13
183 5 34 8 37 40 37 18 0 49 -7 68 -14z m-835 -88 c0 -17 22 -18 316 -18 206
0 313 -3 309 -10 -4 -6 -225 -10 -621 -10 l-614 0 0 28 0 27 305 0 c284 0 305
-1 305 -17z m-1370 -18 c0 -7 -149 -9 -432 -8 l-433 3 430 5 c237 3 431 6 433
8 1 1 2 -2 2 -8z m1987 -102 c-3 -7 -5 -2 -5 12 0 14 2 19 5 13 2 -7 2 -19 0
-25z m2461 -25 c2 -12 11 -23 19 -25 9 -2 -292 -3 -670 -3 l-687 0 0 28 0 27
668 -2 667 -3 3 -22z m-5313 -43 c-2 -31 -15 -37 -15 -7 0 15 4 27 8 27 5 0 8
-9 7 -20z m1495 1 c0 -5 -7 -11 -14 -14 -10 -4 -13 -1 -9 9 6 15 23 19 23 5z
m1350 -28 c-1 -31 -3 -35 -11 -20 -5 9 -7 22 -4 27 4 7 -110 11 -327 12 l-333
3 330 5 c182 3 333 6 338 8 4 1 7 -15 7 -35z m-2374 -53 c316 0 484 -3 484
-10 0 -7 -170 -10 -490 -10 l-490 0 1 33 c1 23 3 26 6 10 l4 -23 485 0z m994
-10 c0 -5 -11 -10 -25 -10 -16 0 -25 -6 -25 -15 0 -13 44 -15 334 -15 l334 0
6 25 c6 24 26 36 26 15 0 -5 -5 -10 -12 -10 -6 0 -8 -3 -5 -7 4 -3 2 -12 -4
-20 -9 -10 -79 -13 -349 -13 l-338 0 -4 25 c-3 13 -3 27 0 30 10 9 62 5 62 -5z
m-502 -35 c6 -2 12 -11 12 -20 0 -13 -56 -15 -507 -13 -500 3 -508 3 -509 23
-1 20 4 20 495 17 273 -1 502 -4 509 -7z m-1023 -44 c3 -5 1 -12 -5 -16 -5 -3
-10 1 -10 9 0 18 6 21 15 7z m1053 -56 c27 -58 60 -55 -533 -55 -429 0 -545 3
-545 13 0 6 3 22 6 34 l6 23 522 3 c286 1 524 3 527 5 3 1 11 -9 17 -23z m336
10 c-6 -14 35 -15 358 -13 l364 3 -4 -28 -4 -27 386 2 c252 2 386 0 386 -7 0
-7 -134 -9 -388 -7 -369 2 -390 1 -410 -16 -12 -11 -22 -24 -22 -31 0 -8 110
-11 406 -11 276 0 403 -3 399 -10 -4 -7 -141 -10 -403 -10 -218 1 -405 -2
-414 -5 -10 -4 -18 -13 -18 -21 0 -12 66 -14 410 -14 272 0 410 -3 410 -10 0
-7 -141 -10 -422 -10 -412 1 -423 0 -426 -18 -2 -11 -12 -28 -23 -38 -48 -44
-44 -44 411 -44 237 0 430 -3 430 -7 0 -5 -200 -7 -445 -5 l-445 2 0 -25 0
-25 442 0 c243 0 439 -2 436 -5 -3 -3 -205 -6 -449 -6 -336 1 -448 -2 -460
-12 -15 -12 -59 -80 -78 -122 -5 -11 -20 -32 -34 -47 -14 -15 -22 -29 -19 -32
3 -3 221 -6 484 -6 376 0 478 -3 478 -12 0 -10 -106 -13 -497 -13 l-497 0 -12
-24 c-7 -13 -17 -26 -22 -30 -13 -8 -52 -82 -52 -99 0 -14 -57 -92 -77 -105
-7 -4 -13 -13 -13 -19 0 -6 -11 -21 -25 -34 -14 -13 -25 -27 -25 -33 0 -5 -6
-16 -13 -23 -23 -23 -58 -100 -53 -115 3 -7 -1 -16 -9 -19 -8 -4 -15 -15 -15
-25 0 -18 18 -19 590 -19 398 0 590 -3 590 -10 0 -7 -195 -10 -599 -10 -585 1
-600 1 -620 -19 -10 -10 -17 -21 -15 -24 2 -2 -2 -10 -11 -17 -8 -7 -15 -19
-15 -26 0 -8 -4 -14 -10 -14 -5 0 -10 -11 -10 -25 l0 -25 615 2 c405 2 615 0
615 -7 0 -7 -212 -9 -622 -7 -411 1 -625 -1 -632 -8 -5 -5 -14 -10 -18 -10 -5
0 -7 282 -6 627 l3 627 30 1 c28 0 30 3 33 44 3 33 8 44 23 48 10 3 19 14 19
24 0 11 4 19 10 19 5 0 7 -7 4 -15z m-1437 -127 c-3 -7 -5 -2 -5 12 0 14 2 19
5 13 2 -7 2 -19 0 -25z m-7 -423 c0 -263 -3 -405 -10 -405 -7 0 -10 142 -10
405 0 263 3 405 10 405 7 0 10 -142 10 -405z m3017 323 c-3 -7 -5 -2 -5 12 0
14 2 19 5 13 2 -7 2 -19 0 -25z m2743 2 c0 -5 -5 -10 -11 -10 -5 0 -7 5 -4 10
3 6 8 10 11 10 2 0 4 -4 4 -10z m-3082 -37 c-115 -2 -301 -2 -415 0 -115 1
-21 2 207 2 228 0 322 -1 208 -2z m3112 -23 c0 -5 -5 -10 -11 -10 -5 0 -7 5
-4 10 3 6 8 10 11 10 2 0 4 -4 4 -10z m-2803 -62 c-3 -7 -5 -2 -5 12 0 14 2
19 5 13 2 -7 2 -19 0 -25z m2833 2 c0 -5 -5 -10 -11 -10 -5 0 -7 5 -4 10 3 6
8 10 11 10 2 0 4 -4 4 -10z m-2863 -112 c-3 -8 -6 -5 -6 6 -1 11 2 17 5 13 3
-3 4 -12 1 -19z m160 -114 c-3 -3 -12 -4 -19 -1 -8 3 -5 6 6 6 11 1 17 -2 13
-5z m-250 -251 c-3 -10 -5 -4 -5 12 0 17 2 24 5 18 2 -7 2 -21 0 -30z m3303
-233 c10 -6 -352 -11 -1023 -12 -824 -2 -1037 0 -1037 10 0 9 211 12 1023 12
638 0 1028 -4 1037 -10z m120 -212 c0 -4 -491 -9 -1090 -10 -722 -2 -1090 0
-1090 7 0 7 370 10 1090 10 600 0 1090 -3 1090 -7z m-502 -125 c-311 -2 -824
-2 -1140 0 -315 1 -60 2 567 2 627 0 885 -1 573 -2z m-3200 -63 c-2 -8 -934
-15 -1294 -10 -3 0 -2 5 1 10 9 14 1298 14 1293 0z m3919 -16 c-3 -3 -12 -4
-19 -1 -8 3 -5 6 6 6 11 1 17 -2 13 -5z m-3820 -81 c-3 -10 -5 -2 -5 17 0 19
2 27 5 18 2 -10 2 -26 0 -35z m-117 -5 c0 -10 -139 -12 -670 -10 -432 1 -670
6 -670 12 0 7 236 10 670 10 529 0 670 -3 670 -12z m199 -43 c43 -22 54 -64
36 -142 -8 -35 -20 -104 -25 -154 -6 -50 -17 -103 -25 -118 -17 -35 -101 -104
-115 -96 -14 8 -5 395 10 455 17 69 57 87 119 55z m-2152 -27 c-3 -8 -6 -5 -6
6 -1 11 2 17 5 13 3 -3 4 -12 1 -19z m1943 -24 c0 -11 -5 -14 -16 -10 -9 3
-441 6 -960 6 -623 0 -944 3 -944 10 0 7 327 10 960 10 875 0 960 -1 960 -16z
m-20 -101 c0 -7 -651 -7 -1530 0 -184 1 85 3 598 5 512 1 932 -1 932 -5z
m-1810 -103 c0 -5 -4 -10 -10 -10 -5 0 -10 5 -10 10 0 6 5 10 10 10 6 0 10 -4
10 -10z m24 -52 c6 -4 7 -10 3 -15 -10 -9 -27 16 -26 37 1 13 1 13 6 0 3 -8
11 -18 17 -22z m30 -60 c6 -4 401 -8 879 -8 l867 0 0 -97 0 -98 -824 3 -825 2
-38 78 c-21 42 -41 79 -45 80 -5 2 -8 10 -8 17 0 7 -7 15 -15 19 -8 3 -15 13
-14 23 0 14 2 15 6 3 3 -8 11 -18 17 -22z m1863 -385 c-1 -43 -3 -10 -3 72 0
83 2 118 3 78 2 -40 2 -107 0 -150z m-117 -79 c0 -11 -5 -14 -16 -10 -9 3
-361 7 -782 8 l-767 3 775 5 c426 3 778 6 783 8 4 1 7 -5 7 -14z m-1576 -48
c-3 -15 -8 -25 -11 -23 -2 3 -1 17 3 31 3 15 8 25 11 23 2 -3 1 -17 -3 -31z
m1711 24 c3 -5 2 -10 -4 -10 -5 0 -13 5 -16 10 -3 6 -2 10 4 10 5 0 13 -4 16
-10z m92 -36 c-3 -3 -12 -4 -19 -1 -8 3 -5 6 6 6 11 1 17 -2 13 -5z"/>
<path d="M4018 6723 c7 -3 16 -2 19 1 4 3 -2 6 -13 5 -11 0 -14 -3 -6 -6z"/>
</g>
</svg>
