<?xml version="1.0" standalone="no"?>
<!DOCTYPE svg PUBLIC "-//W3C//DTD SVG 20010904//EN"
 "http://www.w3.org/TR/2001/REC-SVG-20010904/DTD/svg10.dtd">
<svg version="1.0" xmlns="http://www.w3.org/2000/svg"
 width="1280.000000pt" height="1207.000000pt" viewBox="0 0 1280.000000 1207.000000"
 preserveAspectRatio="xMidYMid meet">

<g transform="translate(0.000000,1207.000000) scale(0.100000,-0.100000)"
fill="#000000" stroke="none">
<path d="M7360 12055 c0 -13 -51 -15 -400 -15 l-400 0 0 -63 c0 -59 -2 -65
-25 -75 -14 -7 -28 -12 -30 -12 -3 0 -5 34 -5 75 l0 75 -1305 0 -1305 0 0
-1765 0 -1765 -430 0 -430 0 0 25 c0 18 -5 25 -20 25 -15 0 -20 -7 -20 -25 l0
-25 -1220 0 -1220 0 0 -1780 0 -1780 -270 0 -270 0 0 -1780 0 -1780 1385 0
1385 0 0 -515 0 -515 450 0 450 0 0 -180 0 -180 2560 0 2560 0 0 695 0 695
1120 0 1120 0 0 1425 0 1425 540 0 540 0 0 355 0 355 340 0 340 0 0 323 c-1
260 -3 327 -15 347 -19 33 -19 50 0 50 13 0 15 31 15 215 l0 215 -880 0 -880
0 0 1205 0 1205 -145 0 -145 0 0 1780 0 1780 -1695 0 c-1500 0 -1695 -2 -1695
-15z m396 -80 c44 -18 64 -61 64 -133 0 -167 -112 -319 -309 -421 -154 -79
-338 -124 -511 -125 -159 0 -189 26 -100 90 87 63 168 198 194 325 12 59 16
67 61 101 98 74 287 154 422 178 58 10 134 4 179 -15z m-806 -136 c58 -12 80
-37 80 -89 0 -71 -91 -219 -199 -324 -47 -47 -52 -49 -68 -33 -38 34 -151 77
-230 89 -103 15 -202 1 -284 -39 l-57 -29 21 31 c46 66 274 281 336 317 62 36
146 61 264 78 76 11 81 11 137 -1z m-345 -434 c57 -56 22 -222 -97 -464 -120
-242 -221 -365 -389 -477 -100 -66 -115 -83 -100 -113 30 -56 21 -191 -21
-315 -51 -151 -183 -375 -339 -576 -75 -97 -265 -300 -281 -300 -5 0 -26 36
-47 80 -36 73 -38 83 -30 122 20 91 144 324 395 749 74 124 134 231 134 237 0
15 -29 21 -109 24 l-63 3 41 50 c23 28 78 122 123 210 44 88 81 161 83 163 2
2 26 -9 55 -23 65 -33 60 -44 -5 -13 -34 16 -49 20 -52 11 -18 -52 -150 -299
-183 -341 l-41 -54 43 2 c71 3 92 0 112 -15 18 -13 11 -27 -132 -267 -250
-421 -376 -662 -389 -744 -5 -28 1 -51 27 -105 19 -38 39 -69 44 -69 16 0 144
138 243 260 165 204 307 442 364 610 27 79 37 239 19 295 -15 46 -6 57 108
132 160 106 262 233 377 468 81 166 115 263 122 346 6 75 -5 105 -44 120 -62
23 -236 -47 -375 -151 -87 -66 -184 -164 -195 -198 -6 -17 -4 -72 3 -142 14
-133 16 -165 8 -158 -3 3 -12 67 -20 142 -14 125 -14 139 1 171 22 45 144 160
236 223 183 122 320 162 374 107z m370 -174 c44 -19 94 -72 96 -99 4 -53 -21
-107 -87 -193 -95 -123 -329 -337 -473 -431 -83 -54 -122 -61 -165 -27 l-26
20 78 88 c178 198 273 333 332 472 49 113 73 147 124 170 51 23 71 23 121 0z
m-1121 -159 c-3 -137 -101 -386 -230 -582 -51 -78 -142 -180 -161 -180 -6 0
-22 17 -36 39 -52 79 -160 102 -269 57 l-58 -24 0 58 c0 66 28 182 62 260 46
104 164 192 498 374 116 63 178 91 185 85 6 -6 9 -45 9 -87z m-864 -645 c-1
-136 -49 -273 -139 -396 -81 -110 -140 -231 -172 -351 -6 -25 -14 -39 -16 -33
-7 19 34 137 77 225 21 42 69 121 106 174 37 53 78 126 91 162 28 77 46 205
35 246 l-8 29 -80 -71 c-149 -131 -296 -310 -350 -427 -18 -39 -43 -105 -55
-147 l-23 -77 66 -73 c88 -99 163 -199 194 -260 29 -58 54 -162 54 -230 0 -27
3 -48 6 -48 14 0 113 65 189 125 98 76 254 237 317 325 176 248 196 477 53
624 -46 46 -93 76 -121 76 -29 0 -68 -32 -117 -99 -22 -31 -68 -87 -100 -126
-32 -38 -115 -155 -185 -260 -146 -221 -131 -199 -136 -194 -7 7 245 381 310
460 33 40 80 100 106 134 25 35 57 70 69 79 29 20 71 21 108 1 48 -24 128
-121 150 -180 26 -69 28 -188 5 -266 -65 -221 -322 -518 -587 -679 -38 -23
-70 -40 -71 -38 -1 2 -7 49 -13 106 -17 156 -61 239 -230 429 -46 52 -73 90
-73 105 0 34 64 211 96 266 46 80 147 202 256 309 111 111 166 155 179 147 5
-3 9 -33 9 -67z m4369 -162 c57 -49 51 -150 -19 -318 -41 -98 -96 -177 -142
-202 l-37 -19 -68 32 c-98 46 -149 56 -266 49 -108 -6 -211 -34 -308 -83 -28
-14 -52 -24 -54 -22 -2 2 7 29 20 60 75 184 249 349 475 448 127 56 212 78
297 79 63 1 75 -2 102 -24z m-2983 -321 c10 -39 -3 -114 -51 -299 -68 -263
-98 -438 -170 -995 -19 -151 -46 -318 -60 -370 -28 -104 -99 -288 -151 -392
-76 -150 -222 -378 -244 -378 -17 0 -21 39 -21 202 1 456 102 1046 258 1503
139 407 351 798 414 764 11 -5 22 -21 25 -35z m1854 -170 c71 -21 120 -69 120
-117 0 -38 -12 -52 -107 -126 -140 -109 -210 -262 -202 -444 l4 -80 -76 -28
-77 -28 -38 57 c-22 31 -56 76 -77 99 l-39 42 -76 -5 c-90 -7 -226 10 -259 31
-34 22 -29 54 19 126 115 173 401 396 596 465 79 28 138 30 212 8z m781 -80
c104 -31 137 -78 125 -178 -19 -150 -144 -291 -356 -400 -115 -60 -298 -130
-418 -161 -100 -26 -216 -33 -228 -14 -14 23 -7 203 10 268 55 204 189 333
460 440 147 59 302 76 407 45z m-4439 -241 c76 -161 87 -223 47 -259 -38 -34
-174 -246 -237 -370 -73 -145 -125 -293 -120 -342 4 -33 3 -34 -26 -28 -77 16
-167 82 -203 149 -23 43 -29 199 -13 324 33 262 126 392 405 568 48 30 91 55
95 55 4 0 27 -44 52 -97z m1278 -184 c0 -10 -12 -11 -34 -3 -9 3 -14 10 -11
14 6 10 45 1 45 -11z m1466 -94 l82 -109 -87 -56 c-147 -96 -351 -293 -465
-447 -20 -28 -36 -40 -46 -36 -87 33 -185 14 -307 -62 l-43 -26 0 31 c0 53 29
149 70 230 133 265 512 598 670 588 44 -3 45 -4 126 -113z m-2063 5 c107 -213
80 -460 -63 -583 -37 -32 -114 -67 -144 -67 -7 0 -12 28 -13 71 -3 120 -57
264 -148 396 l-43 62 176 100 c97 56 182 100 187 98 6 -1 27 -36 48 -77z m587
60 c0 -5 -9 -10 -21 -10 -11 0 -17 5 -14 10 3 6 13 10 21 10 8 0 14 -4 14 -10z
m-28 -20 c10 0 18 -5 18 -11 0 -7 -12 -9 -33 -5 -30 6 -36 3 -60 -31 -15 -21
-27 -34 -27 -30 0 5 14 29 31 54 23 32 34 42 42 34 6 -6 19 -11 29 -11z m14
-39 c-5 -8 -56 -3 -56 5 0 2 14 4 31 4 16 0 28 -4 25 -9z m-18 -28 c-10 -2
-26 -2 -35 0 -10 3 -2 5 17 5 19 0 27 -2 18 -5z m-10 -30 c-10 -2 -26 -2 -35
0 -10 3 -2 5 17 5 19 0 27 -2 18 -5z m-5 -30 c-13 -2 -33 -2 -45 0 -13 2 -3 4
22 4 25 0 35 -2 23 -4z m-5 -20 c-10 -2 -28 -2 -40 0 -13 2 -5 4 17 4 22 1 32
-1 23 -4z m-1006 -103 c116 -122 161 -229 174 -414 l6 -91 -40 -60 c-58 -86
-195 -336 -324 -591 l-111 -220 0 -75 c0 -45 11 -119 28 -189 35 -144 36 -246
5 -380 -25 -105 -85 -286 -125 -377 -24 -52 -26 -66 -20 -130 7 -76 0 -137
-15 -128 -5 3 -29 37 -55 75 -53 79 -95 110 -152 110 -57 0 -148 -49 -227
-121 -77 -71 -120 -151 -180 -335 -20 -61 -43 -119 -50 -130 -13 -17 -15 -15
-34 22 -60 117 -150 441 -172 618 -24 184 0 287 90 408 61 80 140 146 235 194
l69 35 12 -23 c41 -78 58 -282 35 -404 -10 -51 -4 -102 17 -141 32 -59 129
-87 171 -49 26 24 26 42 -1 119 -19 53 -22 83 -22 207 0 121 4 163 26 256 50
211 145 412 253 532 l46 51 -28 73 -28 73 0 290 c0 317 4 345 65 502 52 136
216 373 258 373 9 0 52 -36 94 -80z m1008 56 c0 -26 -16 -36 -59 -34 l-46 1
45 7 45 7 -38 1 c-51 2 -38 22 14 22 21 0 39 -2 39 -4z m1987 -55 c23 -11 44
-29 48 -41 11 -36 -4 -87 -39 -133 -24 -32 -36 -60 -41 -98 -26 -192 -78 -264
-410 -563 -103 -93 -203 -196 -238 -247 -14 -20 -19 -21 -46 -9 -17 7 -47 30
-66 51 -40 44 -45 85 -20 146 18 42 20 152 4 273 -5 46 -7 101 -4 122 16 90
204 314 338 402 150 98 371 143 474 97z m-2008 -31 c-10 -27 -15 -30 -54 -30
-24 0 -47 5 -50 10 -4 6 13 10 44 10 38 0 51 4 51 14 0 10 -14 16 -42 19 -42
3 -41 4 9 5 l52 2 -10 -30z m-58 -48 c-30 -2 -58 0 -62 5 -4 4 20 6 54 3 l62
-5 -54 -3z m38 -18 c2 -2 -46 -4 -108 -4 -70 0 -110 4 -106 10 6 9 204 4 214
-6z m-34 -31 c-96 -7 -203 -7 -198 0 2 4 57 6 121 5 64 -1 99 -3 77 -5z m3
-20 c-15 -2 -42 -2 -60 0 -18 2 -6 4 27 4 33 0 48 -2 33 -4z m-11 -20 c-20 -2
-52 -2 -70 0 -17 2 0 4 38 4 39 0 53 -2 32 -4z m2962 -38 c0 -5 -4 -3 -9 5 -5
8 -9 22 -9 30 0 16 17 -16 18 -35z m-3118 15 c35 0 48 3 43 12 -4 7 -3 8 4 4
27 -16 9 -26 -47 -26 -51 0 -61 -3 -66 -20 -3 -11 -10 -20 -16 -20 -5 0 -1 16
8 36 10 19 19 31 21 25 2 -6 26 -11 53 -11z m147 -27 c-21 -2 -55 -2 -75 0
-21 2 -4 4 37 4 41 0 58 -2 38 -4z m2929 -25 c-3 -7 -5 -2 -5 12 0 14 2 19 5
13 2 -7 2 -19 0 -25z m-2929 5 c-21 -2 -55 -2 -75 0 -21 2 -4 4 37 4 41 0 58
-2 38 -4z m4770 -19 c103 -29 164 -115 141 -199 -13 -45 -90 -122 -170 -171
-90 -54 -208 -104 -250 -104 -19 0 -116 27 -214 61 -99 33 -203 63 -232 66
l-53 6 27 36 c112 151 239 246 389 291 135 40 250 45 362 14z m-1702 -89 c-52
-178 -314 -585 -479 -742 -88 -85 -114 -83 -97 8 22 116 107 302 201 439 84
123 247 297 354 379 l30 23 3 -26 c2 -14 -4 -51 -12 -81z m-156 80 c0 -8 -4
-15 -10 -15 -5 0 -7 7 -4 15 4 8 8 15 10 15 2 0 4 -7 4 -15z m-2894 -21 c-3
-9 -6 -22 -6 -30 0 -11 -17 -14 -75 -14 l-75 0 10 25 10 25 -63 0 c-37 0 -68
-5 -76 -12 -10 -11 -11 -10 -6 5 6 15 23 17 147 17 124 0 139 -2 134 -16z
m2274 2 c0 -2 -13 -6 -30 -8 -16 -3 -30 -1 -30 4 0 4 14 8 30 8 17 0 30 -2 30
-4z m568 -33 c-3 -15 -17 -18 -93 -20 l-90 -3 35 20 c23 13 55 19 93 20 50 0
58 -2 55 -17z m-548 -16 l55 -3 -62 -2 c-54 -2 -63 0 -63 16 0 11 3 13 8 5 4
-6 32 -13 62 -16z m114 -58 l38 -34 -102 0 c-76 0 -104 -3 -108 -13 -3 -11 21
-13 117 -10 67 2 121 0 121 -4 0 -29 -13 -33 -118 -32 l-107 0 103 -3 c56 -2
102 -8 102 -13 0 -6 46 -10 110 -10 70 0 110 -4 110 -10 0 -7 -71 -10 -217 -7
-120 2 -175 2 -123 0 138 -5 140 -23 2 -23 l-112 0 0 98 0 97 72 -1 c68 -2 76
-4 112 -35z m-2636 4 c-21 -2 -55 -2 -75 0 -21 2 -4 4 37 4 41 0 58 -2 38 -4z
m202 -8 c0 -12 -15 -15 -82 -13 l-83 2 80 6 80 6 -75 5 -75 5 78 2 c63 2 77
-1 77 -13z m-42 -25 c25 0 43 -3 39 -6 -8 -8 -167 -10 -167 -2 0 4 -35 9 -77
11 -43 2 -24 3 41 1 66 -2 139 -4 164 -4z m3981 -9 c12 -8 12 -21 3 -80 -7
-38 -12 -85 -12 -105 0 -43 -24 -64 -158 -141 -128 -75 -260 -163 -270 -182
-7 -12 -18 -5 -51 34 -91 102 -120 186 -82 235 42 53 259 182 379 224 68 24
165 32 191 15z m-4139 -25 c14 -2 -17 -4 -68 -5 -51 0 -91 2 -89 7 5 6 99 6
157 -2z m181 -27 c-5 -13 -10 -19 -10 -12 -1 15 10 45 15 40 3 -2 0 -15 -5
-28z m-166 -8 c-3 -6 -11 -11 -16 -11 -5 0 -4 6 3 14 14 16 24 13 13 -3z m78
-20 c79 -1 88 -3 84 -18 -3 -10 -8 -36 -11 -58 -4 -22 -9 -52 -12 -67 l-6 -28
-114 0 c-117 0 -124 3 -104 41 9 17 23 19 118 21 l107 2 -102 3 c-57 2 -103 6
-103 9 0 3 9 23 20 45 26 49 20 52 -90 47 -44 -2 -76 -2 -70 0 5 2 8 7 6 10
-2 4 39 4 92 1 54 -4 137 -7 185 -8z m-1401 -41 c56 -43 100 -212 118 -452 16
-207 19 -191 -46 -223 -108 -53 -242 -213 -301 -358 -14 -34 -26 -64 -28 -65
-8 -9 -60 89 -86 160 -62 170 -80 428 -40 583 56 214 191 375 317 375 26 0 51
-7 66 -20z m2625 -16 c16 -11 39 -42 53 -70 23 -45 25 -60 24 -179 0 -72 -6
-149 -12 -172 -14 -49 -37 -66 -202 -158 -221 -123 -288 -186 -375 -356 -30
-58 -61 -112 -69 -118 -48 -40 -160 68 -231 221 -36 78 -33 92 35 165 62 66
99 129 150 258 94 237 188 334 394 407 97 35 188 35 233 2z m1333 -11 c0 -5
-7 -16 -14 -25 -11 -15 -29 -18 -105 -18 -82 0 -91 2 -91 18 0 10 3 22 7 25 9
10 203 9 203 0z m-36 -78 c-10 -24 161 -22 175 3 6 9 11 12 11 6 1 -31 -29
-36 -192 -32 -90 3 -128 3 -85 1 56 -3 77 -7 74 -16 -2 -8 -33 -13 -88 -15
l-85 -3 4 36 4 35 94 0 c79 0 92 -2 88 -15z m156 -39 c0 -3 -4 -8 -10 -11 -5
-3 -10 -1 -10 4 0 6 5 11 10 11 6 0 10 -2 10 -4z m-2910 -20 c19 -1 -18 -3
-82 -4 -65 -1 -118 1 -118 6 0 6 118 6 200 -2z m274 -51 c-11 -99 17 -91 -289
-79 -223 9 -246 11 -134 12 108 2 139 5 149 17 11 13 -4 15 -125 15 -76 0
-136 3 -133 6 3 3 122 5 264 4 142 0 255 2 252 5 -3 3 -116 6 -252 6 -174 0
-246 3 -244 10 3 8 47 11 132 10 l127 -2 11 28 10 28 120 0 119 0 -7 -60z
m4346 42 c40 -14 57 -48 46 -93 -10 -41 -329 -356 -426 -421 -195 -131 -460
-225 -543 -194 -57 22 -19 113 118 283 142 177 249 279 340 325 185 94 368
133 465 100z m-1979 -17 c39 0 69 -4 69 -10 0 -6 -33 -10 -80 -10 -44 0 -80 2
-80 4 0 16 14 38 18 28 2 -8 28 -12 73 -12z m204 -39 c-15 -14 -305 -26 -305
-12 0 7 51 11 153 14 83 1 154 4 157 5 2 1 0 -2 -5 -7z m847 -48 c21 -48 14
-266 -10 -356 -46 -169 -128 -283 -224 -312 -45 -13 -64 -13 -162 0 -135 17
-155 13 -280 -54 -52 -28 -97 -51 -99 -51 -13 0 -17 59 -6 109 23 114 102 232
251 377 145 141 295 244 425 290 86 30 91 30 105 -3z m-875 10 c-4 -3 -36 -5
-71 -4 -57 2 -66 0 -80 -21 -9 -12 -16 -26 -16 -30 0 -4 30 -9 68 -11 l67 -3
-73 -2 c-65 -2 -75 -5 -79 -22 -5 -17 -14 -20 -70 -20 -48 0 -63 3 -59 13 2 6
10 31 17 54 l11 42 77 4 c158 7 214 7 208 0z m-2905 -50 c-40 -2 -103 -2 -140
0 -37 2 -4 3 73 3 77 0 107 -2 67 -3z m348 -15 c0 -5 -63 -8 -139 -8 -83 0
-142 -4 -146 -10 -10 -16 -288 -13 -283 3 3 8 47 13 154 17 218 7 414 6 414
-2z m2065 -10 c-2 -7 -16 -119 -30 -248 -47 -431 -97 -699 -155 -828 -17 -37
-48 -81 -77 -110 -27 -26 -63 -72 -80 -102 -38 -66 -87 -209 -104 -302 l-12
-67 -71 -16 c-39 -9 -101 -19 -137 -22 l-67 -6 34 149 c66 288 195 790 229
890 84 253 262 521 425 640 52 38 51 38 45 22z m-2075 -43 l0 -25 -285 0
c-234 0 -285 2 -285 14 0 11 56 15 283 23 155 5 283 10 285 11 1 1 2 -9 2 -23z
m-2464 -502 c47 -190 115 -434 153 -550 43 -129 87 -289 116 -423 57 -259 106
-414 190 -609 93 -212 117 -302 119 -431 1 -96 -1 -110 -27 -162 -29 -59 -72
-103 -89 -91 -29 17 -147 318 -256 653 -119 361 -266 901 -311 1140 -67 356
-78 716 -29 930 l12 55 19 -85 c10 -47 56 -239 103 -427z m4814 466 c0 -5 -27
-9 -60 -9 -43 0 -58 3 -55 13 6 14 115 11 115 -4z m-2360 -21 l0 -23 -290 0
c-159 0 -290 3 -290 8 0 4 129 8 288 9 214 2 251 4 147 7 l-140 5 140 6 c77 3
141 7 143 8 1 1 2 -8 2 -20z m2330 -14 c-36 -8 -100 -9 -100 -2 0 5 26 7 58 7
31 -1 50 -3 42 -5z m-2338 -59 l-4 -35 -155 0 c-149 0 -154 1 -148 20 6 19 0
20 -142 23 -98 2 -49 4 147 7 259 4 277 5 150 10 l-145 6 150 2 151 2 -4 -35z
m2316 28 c-15 -2 -42 -2 -60 0 -18 2 -6 4 27 4 33 0 48 -2 33 -4z m-20 -30
c-16 -2 -40 -2 -55 0 -16 2 -3 4 27 4 30 0 43 -2 28 -4z m7 -33 c-3 -5 -29
-10 -56 -10 -31 0 -48 4 -44 10 3 6 29 10 56 10 31 0 48 -4 44 -10z m-2312
-42 c-4 -23 -5 -23 -164 -20 -205 4 -202 21 4 24 l152 2 -155 6 -155 6 161 2
161 2 -4 -22z m2287 2 c0 -5 23 -10 51 -10 27 0 48 -3 46 -7 -3 -5 -48 -7
-100 -5 -78 3 -95 6 -90 18 6 16 93 20 93 4z m-819 -24 c-7 -8 -19 -81 -27
-163 -27 -272 -68 -439 -148 -599 -98 -194 -248 -325 -434 -378 l-53 -15 -10
27 c-42 111 -92 297 -96 364 -7 99 25 208 96 326 124 206 299 366 465 424 93
32 229 41 207 14z m-1473 -61 l-2 -35 -178 0 c-112 0 -178 4 -178 10 0 6 -65
11 -172 12 -146 1 -118 3 177 13 288 9 320 12 182 13 -109 1 -166 6 -162 12 4
6 72 10 171 10 l165 0 -3 -35z m2325 -22 c-13 -2 -35 -2 -50 0 -16 2 -5 4 22
4 28 0 40 -2 28 -4z m-2334 -60 c0 -16 -3 -22 -6 -15 -3 9 -51 12 -191 12
-121 0 -183 3 -176 10 5 5 90 11 189 13 99 1 181 4 183 5 1 1 2 -10 1 -25z
m2241 16 c0 -7 15 -10 39 -7 23 2 37 -1 35 -7 -3 -6 -35 -9 -79 -7 -57 3 -75
7 -75 18 0 10 12 14 40 14 23 0 40 -5 40 -11z m430 -14 c0 -3 -15 -42 -34 -87
-45 -111 -50 -150 -27 -217 l19 -55 -44 -50 c-74 -86 -259 -246 -285 -246 -20
0 -74 59 -95 105 -40 85 -35 103 58 222 109 139 234 263 306 301 50 28 102 41
102 27z m-444 -36 c3 -6 19 -9 35 -7 16 3 29 1 29 -3 0 -4 -19 -9 -42 -11 -34
-2 -42 -7 -44 -25 -3 -20 1 -23 27 -23 16 0 28 -4 25 -8 -3 -5 -18 -7 -35 -4
-22 3 -30 0 -35 -16 -4 -11 -18 -22 -31 -25 -28 -5 -29 1 -19 66 6 34 9 37 40
37 47 0 52 18 7 23 l-38 4 37 1 c20 1 40 -3 44 -9z m-2226 -29 c0 -6 -76 -11
-202 -12 l-203 -2 200 -6 c152 -4 200 -8 199 -17 -1 -7 -2 -17 -3 -23 -1 -6
-77 -10 -206 -10 -130 0 -205 -4 -205 -10 0 -6 75 -10 205 -10 l205 0 0 -44 0
-43 -402 -9 -403 -9 403 -3 c262 -1 401 -6 397 -12 -4 -6 -153 -10 -404 -10
-390 0 -399 0 -404 20 -5 19 0 20 201 22 l207 3 -207 2 -208 3 0 44 c0 25 -3
51 -6 60 -5 14 17 16 207 18 l214 3 -212 2 c-117 2 -213 7 -213 11 0 4 94 6
209 4 203 -3 210 -3 221 17 10 20 19 21 210 21 127 0 200 -4 200 -10z m396
-165 c25 -45 76 -95 96 -95 11 0 37 -9 59 -21 83 -42 97 -146 30 -218 -35 -37
-47 -38 -103 -8 -31 16 -60 22 -104 22 -53 0 -67 -5 -115 -36 -30 -20 -82 -62
-117 -93 -34 -31 -67 -56 -72 -56 -17 0 -11 58 14 122 30 81 89 198 184 370
l76 137 18 -47 c9 -26 25 -60 34 -77z m1820 48 c-10 -11 -36 -12 -36 -2 0 5
10 9 22 9 12 0 18 -3 14 -7z m-58 -38 c-12 -27 -28 -24 -28 6 0 12 7 19 20 19
17 0 18 -3 8 -25z m-2578 -85 c0 -6 -73 -10 -200 -10 -127 0 -200 4 -200 10 0
6 73 10 200 10 127 0 200 -4 200 -10z m3479 -22 c109 -53 177 -169 168 -286
-8 -106 -41 -159 -196 -312 -75 -74 -154 -148 -177 -163 -36 -24 -45 -26 -70
-17 -150 58 -313 13 -465 -128 -79 -73 -77 -79 -33 78 33 122 100 313 140 398
46 102 109 185 202 273 167 156 319 212 431 157z m-3079 -23 l0 -36 -197 1
c-109 0 -289 -1 -401 -2 -156 -2 -202 0 -202 10 0 9 47 12 200 12 124 0 200 4
200 10 0 6 76 11 193 13 105 2 15 2 -200 -1 -283 -3 -393 -1 -393 7 0 10 65
13 603 19 l197 2 0 -35z m0 -65 c0 -6 -43 -10 -107 -10 -60 0 -240 -3 -400 -7
-269 -6 -293 -5 -293 10 0 16 34 17 400 17 260 0 400 -3 400 -10z m-10 -37 c0
-17 -15 -18 -195 -15 -163 2 -195 5 -195 17 0 13 31 15 195 15 179 0 195 -1
195 -17z m0 -45 c0 -10 -44 -12 -197 -8 l-198 5 195 5 c107 3 196 7 198 8 1 1
2 -4 2 -10z m-386 -33 c277 6 376 5 376 -4 0 -8 -57 -11 -197 -11 -137 0 -194
-3 -187 -10 7 -7 77 -10 197 -8 l187 3 0 -30 0 -30 -388 -1 c-213 0 -301 1
-195 3 162 3 192 6 197 19 3 9 4 20 0 25 -3 5 -93 9 -201 9 -174 0 -194 2
-189 16 3 9 6 21 6 27 0 8 3 7 9 -2 7 -11 72 -12 385 -6z m366 -116 c0 -7 -61
-9 -190 -7 -105 2 -190 0 -190 -4 0 -5 -88 -8 -195 -8 -167 0 -195 2 -195 15
0 13 49 15 385 15 265 0 385 -3 385 -11z m0 -46 l0 -28 -156 2 c-86 1 -159 5
-162 8 -3 3 65 5 151 5 108 0 157 3 157 11 0 8 -57 10 -194 8 -155 -3 -192 -1
-184 9 8 9 60 12 199 12 l189 0 0 -27z m609 -2 c60 -32 118 -136 152 -272 19
-72 21 -102 16 -228 -3 -80 -10 -164 -17 -186 -11 -40 -12 -41 -77 -53 -204
-39 -429 -197 -503 -354 -17 -35 -30 -69 -30 -77 0 -28 -38 19 -73 92 -94 193
-129 438 -92 633 38 197 162 348 352 428 102 43 211 49 272 17z m-1011 -4 c7
-8 7 -17 -2 -30 -12 -15 -33 -17 -193 -17 l-180 0 5 30 4 30 178 0 c130 0 180
-3 188 -13z m2658 -84 c24 -275 3 -419 -88 -630 l-40 -93 -27 19 c-51 36 -155
83 -185 84 -17 0 -48 -3 -69 -7 l-39 -7 7 98 c20 297 64 404 208 507 58 42
204 126 219 126 3 0 10 -44 14 -97z m-2529 -155 c-1 -40 -3 -8 -3 72 0 80 2
112 3 73 2 -40 2 -106 0 -145z m5355 105 c-78 -182 -345 -707 -463 -913 -224
-389 -274 -483 -502 -940 -252 -504 -333 -649 -416 -741 -63 -71 -95 -89 -153
-89 -60 0 -159 27 -181 49 -18 17 -16 24 56 192 207 483 537 1129 795 1559
242 404 476 714 648 861 77 66 192 129 235 129 l28 0 -47 -107z m-5091 46 c-2
-40 -7 -52 -22 -56 -10 -3 -19 -14 -19 -24 0 -11 -5 -19 -11 -19 -6 0 -9 12
-7 27 3 24 -4 32 -52 60 -30 18 -58 33 -62 33 -4 0 -8 -43 -8 -95 0 -57 -4
-95 -10 -95 -6 0 -10 42 -10 105 0 86 -3 105 -15 105 -12 0 -15 -23 -18 -122
l-3 -123 -2 128 -2 127 123 0 122 0 -4 -51z m-421 21 c0 -6 -66 -11 -172 -12
l-173 -2 163 -3 c159 -3 162 -4 162 -25 0 -17 -3 -19 -12 -10 -16 16 -308 17
-308 1 0 -7 50 -9 150 -7 83 2 150 0 150 -4 0 -5 -71 -9 -157 -10 l-158 -2
155 -6 c85 -3 153 -7 150 -8 -3 -1 -74 -4 -158 -5 l-154 -2 6 29 c3 16 6 39 6
52 l0 24 175 0 c110 0 175 -4 175 -10z m-23 -297 c-1 -43 -3 -8 -3 77 0 85 2
120 3 78 2 -43 2 -113 0 -155z m-37 167 c0 -5 -5 -10 -11 -10 -5 0 -7 5 -4 10
3 6 8 10 11 10 2 0 4 -4 4 -10z m4300 -26 c0 -55 -98 -213 -407 -654 -332
-475 -457 -678 -579 -940 -44 -96 -133 -283 -197 -415 -251 -523 -273 -590
-423 -1280 -134 -619 -193 -934 -228 -1205 -40 -314 -49 -587 -23 -685 50
-187 44 -251 -32 -315 -62 -51 -91 -109 -97 -197 -5 -72 2 -123 57 -395 33
-163 35 -166 66 -183 31 -17 53 -14 53 7 0 18 116 252 138 278 35 42 26 6 -43
-169 -36 -90 -64 -165 -63 -166 2 0 16 -9 31 -19 16 -10 30 -16 31 -14 1 2 13
41 25 88 68 254 236 474 410 535 40 14 43 14 36 -3 -16 -40 -55 -203 -66 -277
-8 -49 -12 -171 -12 -318 1 -130 0 -237 -1 -237 -2 0 -44 23 -94 50 l-91 51
-73 -23 c-62 -19 -95 -22 -218 -22 -156 0 -258 16 -267 41 -9 23 20 70 92 148
35 39 64 73 65 77 0 3 -16 15 -35 26 l-34 21 -47 -62 c-55 -74 -90 -140 -99
-190 -6 -32 -11 -37 -35 -37 -34 0 -40 14 -40 89 0 66 8 80 94 169 59 61 60
64 41 78 -18 13 -23 10 -70 -34 -153 -146 -175 -156 -236 -105 -82 70 -89 174
-22 322 23 50 27 75 34 231 5 96 13 252 17 347 9 169 1 388 -16 448 -8 27 -4
35 44 87 164 179 257 356 300 572 10 54 18 173 23 361 l8 280 35 85 c155 371
176 433 198 585 21 150 3 305 -51 446 l-30 79 36 32 c46 40 109 132 145 212
56 122 108 332 125 501 l7 69 92 91 c122 120 214 232 484 590 486 645 669 851
842 944 71 39 100 40 100 5z m-4350 -14 c0 -6 -53 -10 -140 -10 -87 0 -140 4
-140 10 0 6 53 10 140 10 87 0 140 -4 140 -10z m-287 -45 c-3 -9 -8 -14 -10
-11 -3 3 -2 9 2 15 9 16 15 13 8 -4z m221 -56 c-3 -5 -64 -9 -135 -9 -88 0
-128 3 -124 10 4 7 55 10 136 9 73 0 126 -5 123 -10z m476 -154 c5 -72 14
-201 20 -288 6 -87 17 -178 26 -202 11 -35 12 -48 3 -63 -29 -46 -198 -134
-285 -147 -34 -6 -43 -3 -66 20 -61 61 -93 176 -85 304 4 74 10 94 51 175 28
56 72 123 116 174 75 87 187 179 202 164 4 -4 12 -66 18 -137z m1566 136 c-11
-18 -176 -552 -206 -667 -68 -262 -110 -591 -95 -751 l7 -72 -40 -53 c-95
-128 -238 -406 -292 -568 -42 -126 -50 -210 -50 -548 0 -322 -6 -374 -42 -393
-18 -10 -24 -8 -38 9 -57 70 -100 501 -100 999 0 284 -15 237 139 423 53 63
112 135 132 160 103 131 185 283 216 400 22 85 22 235 0 320 -19 71 -80 204
-120 260 l-25 35 43 60 c24 33 66 100 95 149 28 49 65 107 82 128 53 67 159
116 256 117 24 1 41 -3 38 -8z m-2123 -8 c-34 -2 -93 -2 -130 0 -37 2 -9 3 62
3 72 0 102 -1 68 -3z m3494 -139 c48 -36 66 -78 71 -166 7 -126 -48 -273 -176
-464 -175 -261 -394 -465 -524 -489 -79 -15 -165 46 -153 109 14 68 200 605
229 661 37 72 211 252 301 310 74 49 150 77 189 70 16 -3 44 -17 63 -31z
m-3557 4 c0 -5 -52 -8 -116 -8 -63 0 -113 3 -111 8 3 4 55 7 116 7 61 0 111
-3 111 -7z m205 -48 c-4 -6 -55 -10 -121 -10 -74 0 -113 4 -109 10 4 6 55 10
121 10 74 0 113 -4 109 -10z m-28 -36 c-7 -7 -229 -5 -236 2 -2 2 51 4 119 4
68 0 121 -3 117 -6z m-671 -65 c33 -31 58 -80 75 -149 16 -62 20 -411 6 -492
-8 -48 -9 -48 -47 -48 -109 0 -158 -59 -236 -284 l-37 -107 -40 38 c-53 51
-123 159 -151 235 -50 133 -59 333 -21 472 36 131 124 263 211 317 87 54 193
62 240 18z m635 4 c-8 -16 -23 -18 -125 -15 -64 2 -116 6 -116 10 0 4 50 6
111 4 70 -2 116 1 122 7 16 16 19 13 8 -6z m2332 -11 c64 -67 41 -132 -108
-312 -148 -177 -185 -273 -246 -625 -17 -99 -34 -186 -38 -194 -11 -19 -66
125 -82 213 -19 110 -7 312 25 419 40 133 97 238 190 351 49 58 194 176 216
176 9 0 28 -13 43 -28z m-2348 -34 c-4 -10 -33 -12 -110 -10 -70 2 -105 0
-105 -7 0 -7 36 -11 100 -11 73 0 100 -3 100 -12 0 -10 -25 -12 -100 -10 -66
2 -100 0 -100 -7 0 -7 34 -11 95 -11 84 0 95 -2 95 -17 0 -16 -9 -18 -87 -14
-62 2 -90 7 -96 17 -6 10 -32 14 -102 14 l-94 0 -16 30 -16 30 111 0 c67 0
110 4 110 10 0 6 43 10 110 10 83 0 108 -3 105 -12z m2634 -116 c107 -107 97
-370 -20 -553 -23 -35 -122 -146 -221 -246 -143 -145 -179 -186 -176 -205 5
-39 38 -33 97 17 141 121 257 169 322 135 100 -54 103 -433 4 -656 -40 -91
-110 -197 -160 -243 -40 -37 -49 -41 -97 -41 -54 0 -115 -22 -169 -61 -17 -12
-32 -19 -35 -16 -6 6 82 62 119 76 16 6 49 11 74 11 82 0 140 56 227 220 96
182 130 440 80 617 -19 68 -54 97 -108 90 -58 -8 -153 -60 -231 -126 -80 -69
-97 -76 -126 -52 -17 13 -20 23 -14 41 4 14 94 112 199 220 208 212 250 272
281 401 22 94 20 212 -6 279 -40 105 -78 122 -160 69 -144 -92 -293 -328 -347
-549 -44 -175 -38 -319 18 -532 60 -222 73 -291 73 -388 1 -111 -13 -184 -56
-295 -17 -44 -30 -83 -29 -87 1 -4 -13 -17 -31 -29 -27 -19 -29 -20 -16 -3 27
31 65 114 91 194 20 64 23 95 23 215 -1 137 -2 145 -53 340 -78 293 -81 438
-16 647 70 223 226 441 369 516 53 28 61 27 94 -6z m-2669 -15 c-3 -4 -79 -8
-170 -10 -91 -2 -128 -2 -82 0 111 5 105 23 -8 23 -49 0 -90 3 -90 8 0 4 80 3
177 -3 98 -5 176 -13 173 -18z m2 -94 l3 -44 -80 3 c-72 3 -80 5 -81 23 -3 70
4 65 -89 65 -47 0 -85 3 -85 8 0 4 74 3 164 -2 l164 -9 4 -44z m1463 33 c47
-20 68 -65 73 -161 8 -151 -56 -402 -153 -597 -73 -148 -148 -248 -238 -319
-59 -47 -75 -48 -239 -17 l-118 22 0 67 c0 153 83 518 150 658 90 187 212 309
350 352 42 12 139 10 175 -5z m-1768 -38 c-3 -8 -6 -5 -6 6 -1 11 2 17 5 13 3
-3 4 -12 1 -19z m94 -48 c81 0 75 -18 -8 -23 -38 -2 -2 -3 80 -3 81 1 147 -2
147 -5 0 -8 -276 -23 -288 -15 -5 3 -12 17 -15 31 -3 20 -1 25 10 21 8 -3 41
-6 74 -6z m7687 -35 c20 -25 74 -163 86 -220 l6 -30 -303 -186 -304 -187 -54
10 c-29 5 -119 8 -200 6 l-146 -3 -82 -41 -82 -41 7 31 c30 142 134 299 262
396 169 128 578 286 749 289 33 1 46 -4 61 -24z m-7468 -35 c0 -18 -6 -20 -72
-18 l-73 2 65 6 c36 4 3 5 -72 2 -97 -3 -138 -1 -138 6 0 8 47 12 143 15 78 1
143 4 145 5 1 1 2 -7 2 -18z m-142 -34 c3 -3 38 -6 79 -6 40 0 73 -3 73 -7 0
-5 -61 -7 -137 -5 -104 2 -138 0 -144 -10 -6 -9 -9 -9 -9 -1 0 6 -2 17 -5 25
-4 10 10 13 66 11 39 -1 73 -4 77 -7z m158 -54 c1 -7 0 -8 -3 -2 -6 13 -143
13 -143 0 0 -6 -32 -10 -75 -10 -99 0 -97 18 3 23 142 6 215 3 218 -11z m11
-37 c2 -6 -14 -9 -39 -7 -24 2 -91 -1 -150 -5 -84 -7 -108 -6 -108 4 0 20 290
28 297 8z m566 -39 c42 -18 71 -50 99 -111 20 -43 23 -66 22 -160 0 -140 -27
-243 -119 -456 -103 -237 -154 -372 -191 -509 -20 -73 -41 -130 -51 -137 -40
-30 -108 -8 -153 49 -93 120 -157 442 -132 670 24 225 128 448 271 581 86 81
176 106 254 73z m-553 -6 c0 -6 -31 -9 -77 -8 l-78 2 75 6 c41 4 76 7 78 8 1
1 2 -2 2 -8z m-67 -37 c-68 -3 -81 -6 -76 -19 5 -13 -7 -14 -73 -12 -66 3 -79
6 -82 21 -3 16 9 17 155 15 88 -1 121 -4 76 -5z m-100 -60 c-24 -2 -62 -2 -85
0 -24 2 -5 4 42 4 47 0 66 -2 43 -4z m52 -23 c4 -6 -25 -10 -79 -10 -47 0 -88
5 -91 10 -4 6 25 10 79 10 47 0 88 -4 91 -10z m214 -71 c-7 -14 -21 -19 -53
-19 -23 0 -104 -3 -179 -7 -114 -5 -137 -4 -137 8 0 11 16 13 81 11 101 -4
112 -1 99 32 l-9 25 82 3 c69 3 86 0 104 -16 17 -15 20 -23 12 -37z m6088 21
c54 -27 68 -39 84 -74 24 -53 24 -93 -1 -166 -49 -147 -207 -340 -327 -401
-43 -22 -50 -19 -139 61 -90 81 -142 88 -302 38 -85 -26 -109 -26 -135 1 -17
16 -22 33 -21 69 2 147 241 388 469 472 90 33 131 39 223 36 69 -3 94 -9 149
-36z m1583 8 c38 -19 46 -28 48 -56 7 -73 -99 -185 -298 -317 -114 -75 -164
-95 -233 -95 -82 0 -142 44 -171 127 l-14 42 66 54 c152 124 293 212 402 253
58 21 149 17 200 -8z m-7690 -76 c0 -4 -33 -6 -72 -4 -108 5 -115 10 -15 11
48 0 87 -3 87 -7z m-247 -29 c-42 -2 -73 -8 -73 -14 0 -8 47 -9 150 -4 83 4
150 5 150 2 0 -3 -5 -18 -12 -32 -10 -23 -16 -25 -87 -26 -42 0 -100 0 -128 1
-43 1 -53 -2 -53 -15 0 -14 9 -16 55 -13 30 1 55 0 55 -4 0 -5 -25 -8 -56 -8
-71 0 -63 -19 9 -22 l52 -1 -55 -6 c-59 -6 -60 -6 -74 52 l-6 27 136 0 c76 0
135 2 133 5 -3 2 -65 7 -139 10 -135 5 -135 5 -138 30 -3 25 -3 25 75 23 l78
-2 -72 -3z m-352 -155 c64 -109 128 -251 144 -321 30 -128 14 -335 -40 -507
l-26 -81 36 -58 c101 -167 116 -231 124 -541 7 -241 9 -259 34 -324 29 -78 27
-88 -27 -130 -159 -121 -318 -76 -456 130 -106 159 -116 292 -41 534 37 117
84 222 219 493 6 11 -47 -13 -108 -51 -114 -71 -220 -198 -285 -344 -16 -37
-32 -68 -35 -68 -7 0 -102 164 -190 329 -139 261 -174 443 -121 638 43 158
219 243 342 165 85 -55 81 -41 84 -314 2 -247 10 -313 41 -325 23 -8 51 24 63
72 6 25 11 135 11 258 0 177 3 226 19 288 20 80 56 167 98 238 l26 45 23 -27
c13 -15 42 -60 65 -99z m-2716 -30 c176 -91 463 -295 690 -490 152 -130 419
-396 559 -557 421 -482 781 -1018 1124 -1677 66 -126 162 -301 213 -389 205
-351 409 -738 409 -776 0 -38 -83 -398 -140 -606 -81 -297 -127 -429 -161
-457 -30 -25 -105 -46 -165 -46 -29 0 -34 3 -30 18 7 24 21 222 18 250 -4 35
-345 557 -447 687 -31 39 -105 178 -217 405 -755 1529 -825 1668 -1081 2130
-176 318 -315 549 -463 770 -68 102 -131 196 -140 210 -9 14 25 -18 76 -70
547 -568 1248 -1698 2028 -3272 216 -436 217 -438 248 -438 l31 0 6 74 c3 50
1 90 -8 120 -31 102 -334 714 -565 1141 -690 1273 -1494 2433 -2072 2985 -63
60 -63 60 -23 42 22 -10 72 -34 110 -54z m3229 17 c-4 -11 -21 -15 -55 -15
-66 0 -63 18 4 23 28 2 53 4 54 5 1 1 0 -5 -3 -13z m-114 -15 c0 -5 21 -11 48
-13 26 -2 7 -3 -43 -2 l-90 3 90 -12 90 -13 -87 -4 c-91 -4 -98 -1 -98 39 0
14 8 16 45 14 25 -2 45 -8 45 -12z m-3 -67 c-10 -9 -67 -10 -67 0 0 4 17 7 37
7 20 0 33 -3 30 -7z m7024 -33 c63 -12 117 -38 135 -66 12 -17 9 -26 -25 -76
-21 -32 -42 -74 -46 -95 -10 -54 -36 -92 -109 -161 -107 -99 -305 -221 -461
-282 -44 -18 -134 -57 -200 -88 -107 -50 -127 -56 -186 -57 -53 0 -72 4 -89
20 -64 56 -78 177 -34 272 32 67 139 182 238 257 111 83 301 192 394 226 145
52 278 70 383 50z m-6996 -8 c48 -9 38 -17 -32 -27 -49 -6 -53 -5 -53 14 0 23
15 25 85 13z m-10 -40 c-30 -5 -30 -5 -5 -12 19 -6 16 -8 -17 -6 -24 0 -43 4
-43 8 0 8 34 15 70 15 20 0 19 -1 -5 -5z m2145 -82 c58 -31 88 -271 56 -443
-9 -49 -39 -157 -65 -240 -63 -196 -61 -189 -49 -257 10 -50 9 -62 -6 -84 -23
-36 -55 -33 -112 10 -75 58 -107 74 -144 74 -59 0 -125 -60 -151 -137 -13 -40
-31 -42 -59 -5 -116 146 -55 465 147 769 70 107 191 229 279 281 76 46 77 46
104 32z m-2168 -29 c-5 -23 -6 -24 -13 -6 -11 29 -11 32 4 32 9 0 12 -9 9 -26z
m5806 -75 c144 -51 197 -161 136 -284 -47 -95 -117 -139 -282 -178 -130 -31
-190 -57 -296 -131 -120 -83 -162 -120 -202 -174 -20 -27 -43 -49 -53 -49 -9
0 -38 13 -62 29 -33 21 -51 41 -63 72 -34 85 -3 161 129 314 209 241 349 356
490 401 54 17 154 17 203 0z m-4691 -77 c15 -5 31 -16 35 -22 18 -29 7 -150
-26 -279 -65 -252 -163 -501 -336 -853 -103 -210 -176 -382 -216 -509 -21 -67
-30 -73 -142 -88 -69 -10 -75 -9 -110 15 -141 94 -259 600 -197 842 31 119
108 216 211 268 93 47 95 46 61 -23 -24 -47 -31 -78 -35 -139 -5 -92 13 -143
74 -211 44 -49 148 -120 175 -120 17 0 17 2 -1 43 -74 168 -70 433 11 665 42
119 89 201 161 278 109 116 241 169 335 133z m-1054 -276 c-7 -2 -19 -2 -25 0
-7 3 -2 5 12 5 14 0 19 -2 13 -5z m-83 -27 c0 -17 -7 -25 -25 -29 -17 -3 -24
0 -22 7 2 6 12 10 22 8 12 -2 16 1 12 11 -5 13 0 27 10 27 2 0 3 -11 3 -24z
m43 9 c4 -8 2 -17 -3 -20 -6 -4 -10 3 -10 14 0 25 6 27 13 6z m4942 -94 c-41
-96 -68 -197 -62 -223 7 -25 -17 -33 -121 -42 -90 -8 -188 -30 -209 -48 -19
-16 -17 45 3 88 20 42 102 118 191 177 66 44 226 135 230 132 2 -1 -13 -38
-32 -84z m-4855 41 c0 -4 -20 -7 -45 -7 -54 0 -60 12 -7 17 39 3 52 1 52 -10z
m-95 -22 c4 -6 -15 -10 -49 -10 -31 0 -56 5 -56 10 0 6 22 10 49 10 28 0 53
-4 56 -10z m27 -58 c7 -7 -7 -11 -42 -13 -39 -3 -54 0 -60 11 -7 12 0 15 42
14 27 -1 54 -6 60 -12z m118 -22 c0 -5 -22 -10 -50 -10 -27 0 -50 5 -50 10 0
6 23 10 50 10 28 0 50 -4 50 -10z m5735 -31 c25 -79 -54 -332 -145 -464 -107
-155 -394 -351 -590 -401 -163 -43 -199 26 -95 182 49 73 65 129 65 224 0 142
62 218 260 319 153 78 387 159 467 160 24 1 33 -4 38 -20z m-5717 -16 c6 -20
-94 -17 -102 3 -5 13 3 15 46 12 30 -2 53 -8 56 -15z m-6 -54 c20 12 21 11 12
-13 -7 -18 -69 -23 -79 -6 -3 6 -28 10 -56 10 -27 0 -49 4 -49 8 0 5 35 4 77
-1 54 -6 83 -5 95 2z m-87 -73 c0 -19 -3 -22 -16 -15 -28 14 -32 39 -6 39 17
0 22 -6 22 -24z m2470 -30 c192 -146 73 -770 -196 -1035 -56 -55 -79 -62 -100
-30 l-14 20 -77 -25 c-42 -14 -81 -26 -87 -26 -5 0 13 66 40 148 71 210 89
290 89 403 0 74 -6 117 -25 180 l-25 84 40 81 c47 97 155 219 203 232 44 12
114 -3 152 -32z m2395 -102 c52 -30 73 -66 78 -132 5 -71 -22 -186 -68 -288
-30 -67 -35 -73 -78 -89 -80 -30 -324 -151 -388 -193 -71 -46 -194 -159 -236
-216 l-28 -39 -24 55 c-47 105 -56 202 -30 326 57 275 281 524 529 589 72 18
203 12 245 -13z m-620 -115 c0 -7 -52 -98 -116 -204 -74 -124 -120 -212 -130
-248 -21 -83 -48 -139 -84 -181 -44 -50 -79 -66 -141 -66 -68 0 -112 27 -134
82 -15 39 -15 44 4 107 66 215 293 440 506 502 72 21 95 23 95 8z m-3080 -50
c0 -16 22 -132 49 -257 75 -344 82 -386 88 -529 5 -106 2 -147 -12 -205 -32
-134 -109 -299 -196 -418 l-32 -44 -23 84 c-42 161 -79 240 -104 225 -15 -9
-10 -105 20 -440 10 -115 22 -255 25 -310 8 -123 29 -171 144 -343 44 -67 81
-129 81 -139 0 -10 -9 -47 -20 -83 -27 -87 -47 -170 -75 -316 -40 -204 -169
-524 -278 -690 -54 -82 -142 -169 -192 -189 -38 -17 -103 -19 -124 -6 -11 7
-14 34 -14 113 0 109 19 237 56 378 20 78 21 110 22 377 0 282 -6 352 -20 241
-25 -202 -103 -559 -194 -883 l-58 -210 -14 75 c-18 106 -16 333 6 455 31 176
96 374 206 623 33 73 59 146 59 161 0 16 -8 49 -18 73 -18 40 -19 79 -17 628
1 473 5 611 18 720 28 229 59 358 109 453 32 60 91 121 111 115 30 -10 61
-106 119 -373 9 -41 18 -60 28 -60 16 0 18 57 10 320 -4 135 7 197 51 290 33
71 77 127 132 166 50 36 57 36 57 -2z m734 10 c102 -47 98 -404 -9 -825 -56
-219 -124 -369 -163 -362 -12 2 -28 36 -53 110 -33 102 -67 158 -94 158 -7 0
-33 -9 -59 -21 -63 -28 -88 -23 -104 21 -27 78 19 402 79 545 61 148 190 309
287 359 53 28 79 31 116 15z m1414 -141 c-106 -274 -142 -408 -208 -773 -155
-862 -286 -1382 -354 -1408 -22 -9 -44 17 -52 60 -12 65 4 314 30 467 111 641
419 1580 578 1761 69 78 70 56 6 -107z m-7601 -89 c325 -45 686 -206 1057
-472 395 -283 862 -749 1437 -1437 447 -535 1049 -1320 1049 -1369 0 -33 -29
-259 -36 -283 -7 -25 -68 -24 -156 3 -65 19 -71 23 -101 72 -236 387 -511 712
-1122 1323 -682 683 -1432 1353 -2272 2032 -135 108 -159 131 -140 135 46 9
208 7 284 -4z m9124 -258 c73 -80 54 -325 -42 -529 -96 -207 -262 -364 -501
-476 -145 -69 -248 -83 -262 -38 -15 45 58 337 127 513 80 203 203 340 449
503 110 73 180 82 229 27z m-4932 -278 l-2 -78 74 -1 c41 0 80 -4 87 -8 8 -5
12 -40 12 -107 0 -54 2 -99 4 -99 27 0 31 15 28 95 -2 56 0 85 7 85 7 0 11
-31 11 -85 l0 -85 73 2 72 2 -69 3 c-67 4 -68 4 -46 20 15 10 40 16 67 14 35
-1 43 1 43 15 0 34 9 8 15 -46 l6 -55 -280 -3 c-155 -2 -281 0 -281 5 0 4 63
7 140 5 77 -2 140 1 140 6 0 4 -8 17 -18 28 -10 10 -19 24 -20 29 -1 6 -51 10
-124 10 -109 0 -137 5 -138 25 0 3 54 3 121 2 98 -3 120 -1 117 10 -3 10 -35
14 -121 16 -64 1 -117 6 -117 10 0 4 50 6 111 4 77 -2 109 0 104 7 -3 7 -52
12 -118 13 l-112 2 108 3 c139 5 141 23 2 23 -58 0 -105 3 -105 8 0 4 20 6 45
4 25 -2 62 -1 81 3 l35 6 -2 80 c-1 44 1 82 5 86 3 3 6 -35 6 -85 0 -72 3 -92
14 -92 11 0 14 20 13 100 -1 55 2 100 6 100 5 0 7 -35 6 -77z m28 45 c-3 -8
-6 -5 -6 6 -1 11 2 17 5 13 3 -3 4 -12 1 -19z m4049 1 c27 -30 32 -218 9 -365
-34 -219 -85 -459 -99 -469 -8 -5 -55 -39 -105 -74 -50 -35 -154 -123 -231
-197 -76 -73 -148 -138 -159 -143 -42 -23 -100 27 -134 115 -26 68 -40 199
-34 313 9 154 39 241 130 376 56 83 215 237 328 317 92 66 238 148 263 148 7
0 21 -9 32 -21z m-4156 -84 c0 -37 -4 -65 -10 -65 -6 0 -10 28 -10 65 0 37 4
65 10 65 6 0 10 -28 10 -65z m-60 -9 c0 -34 4 -46 18 -49 9 -3 -9 -5 -40 -6
-33 0 -58 3 -58 9 0 6 14 10 31 10 28 0 30 2 29 33 -3 43 -2 47 10 47 6 0 10
-20 10 -44z m-62 -24 c-26 -5 -33 3 -17 21 12 12 15 12 26 -2 10 -13 8 -17 -9
-19z m-91 -48 c8 -21 39 -165 69 -319 74 -373 101 -480 235 -934 24 -81 29
-113 24 -148 -11 -72 -72 -118 -96 -73 -4 8 -33 125 -64 260 -31 135 -79 335
-107 445 -116 467 -154 745 -107 801 18 22 31 13 46 -32z m2573 -17 c149 -88
177 -298 81 -588 -72 -212 -215 -465 -331 -581 -72 -72 -96 -75 -134 -18 -31
47 -90 88 -143 100 -52 12 -93 -9 -256 -131 -72 -55 -136 -99 -143 -99 -23 0
-72 72 -93 138 -51 155 -65 375 -31 508 26 103 104 261 180 364 65 87 200 230
218 230 6 0 26 -26 45 -58 97 -165 119 -296 74 -438 -53 -167 -81 -377 -57
-414 17 -25 35 11 54 108 63 319 142 545 244 687 79 111 194 225 227 225 6 0
35 -15 65 -33z m-2031 -54 c-2 -70 -6 -63 -11 20 -2 26 0 47 4 47 5 0 7 -30 7
-67z m239 30 c23 -54 27 -518 8 -973 -8 -195 -12 -358 -10 -362 6 -9 -108
-586 -207 -1043 -47 -218 -74 -324 -85 -332 -23 -17 -122 -31 -276 -39 l-137
-6 50 148 c109 326 222 789 293 1207 l7 37 57 0 c66 0 129 25 159 63 17 22 21
47 27 174 20 439 78 1163 93 1163 2 0 11 -17 21 -37z m-146 -10 c25 -22 23
-33 -7 -33 -20 0 -25 5 -25 25 0 29 7 31 32 8z m-349 -100 c-35 -2 -91 -2
-125 0 -35 2 -7 3 62 3 69 0 97 -1 63 -3z m387 -88 c0 -18 -42 -19 -350 -7
l-205 7 140 5 c311 13 415 11 415 -5z m-342 -32 c-38 -2 -98 -2 -135 0 -38 2
-7 3 67 3 74 0 105 -1 68 -3z m332 -18 c0 -13 -21 -15 -129 -15 -118 0 -152 6
-134 24 3 3 64 6 135 6 107 0 128 -2 128 -15z m-315 -2 c-95 -7 -215 -7 -215
0 0 4 57 6 128 5 70 -1 109 -3 87 -5z m315 -48 c0 -24 -2 -25 -63 -25 -135 0
-457 13 -457 19 0 3 116 6 257 6 142 -1 201 0 131 2 -171 5 -169 23 2 23 l130
0 0 -25z m-150 -56 c-251 -11 -360 -11 -360 4 0 9 55 11 252 8 253 -5 253 -5
108 -12z m140 -29 c0 -19 -7 -20 -125 -20 -103 0 -125 3 -125 15 0 12 23 15
123 18 67 1 123 4 125 5 1 1 2 -7 2 -18z m-10 -54 c0 -18 -10 -18 -232 -11
-128 4 -236 9 -240 12 -26 15 17 18 232 18 228 0 240 -1 240 -19z m-240 -23
c0 -5 -52 -8 -115 -8 -63 0 -115 3 -115 8 0 4 52 7 115 7 63 0 115 -3 115 -7z
m230 -42 l0 -24 -167 6 c-91 4 -192 7 -225 7 -44 0 -58 3 -58 15 0 15 84 20
343 20 106 0 107 0 107 -24z m-1 -38 c-1 -17 -18 -47 -18 -34 -1 11 -39 12
-208 9 -115 -3 -159 -3 -100 -1 91 3 108 6 103 18 -4 13 13 15 109 15 63 0
115 -3 114 -7z m-276 -50 c-29 -2 -77 -2 -105 0 -29 2 -6 3 52 3 58 0 81 -1
53 -3z m265 -46 c-2 -1 -50 0 -108 4 l-105 5 103 2 c89 2 102 4 103 20 1 10 3
8 6 -6 3 -13 3 -25 1 -25z m-243 -3 c-71 -8 -165 -8 -165 -1 0 4 44 6 98 5 53
0 84 -3 67 -4z m234 -61 c-1 -27 -3 -40 -6 -29 -5 17 -16 18 -191 14 -103 -3
-144 -2 -92 2 l95 6 -96 2 c-76 2 -98 5 -103 17 -3 8 -1 15 3 15 5 0 11 -5 13
-11 3 -9 53 -9 188 -2 166 9 175 10 90 13 l-95 4 95 6 c52 3 96 7 98 8 1 1 1
-19 1 -45z m3802 -77 c27 -99 -30 -310 -147 -546 -151 -302 -324 -506 -512
-601 -70 -35 -159 -56 -175 -40 -18 18 7 100 107 351 52 129 107 278 124 330
16 53 39 114 50 137 64 124 250 285 450 390 34 18 69 30 77 27 8 -3 20 -25 26
-48z m-3994 19 c2 -6 -33 -10 -92 -10 -71 0 -95 3 -95 13 0 16 181 13 187 -3z
m-567 -54 c0 -6 15 -11 33 -13 l32 -3 -33 -6 c-26 -4 -35 -2 -43 13 -6 12 -6
18 1 18 5 0 10 -4 10 -9z m90 -35 c0 -12 -5 -7 -19 24 -11 24 -11 24 3 6 9
-11 16 -24 16 -30z m666 -23 c-11 -11 -356 9 -356 21 0 7 18 10 52 8 29 -1
109 1 178 5 117 7 125 7 128 -10 2 -10 1 -21 -2 -24z m-641 -32 c8 -16 20 -31
27 -34 7 -3 -1 -5 -18 -4 -17 0 -36 -3 -41 -6 -5 -3 -19 6 -30 21 -37 51 -37
52 6 52 35 0 43 -4 56 -29z m465 -6 c0 -6 -30 -9 -76 -7 l-77 4 5 -26 c3 -14
1 -26 -3 -26 -5 0 -9 9 -9 19 0 11 -2 25 -5 33 -4 10 13 13 80 13 50 0 85 -4
85 -10z m-377 -32 c-7 -2 -21 -2 -30 0 -10 3 -4 5 12 5 17 0 24 -2 18 -5z
m557 -39 c0 -13 -21 -15 -165 -12 -174 3 -221 15 -82 21 221 9 247 8 247 -9z
m-651 -24 c11 -24 11 -24 -3 -6 -9 11 -16 24 -16 30 0 12 5 7 19 -24z m651
-10 c0 -6 -33 -10 -80 -10 -47 0 -80 4 -80 10 0 6 33 10 80 10 47 0 80 -4 80
-10z m3014 -16 c26 -10 37 -74 26 -150 -17 -122 -98 -477 -125 -554 -31 -85
-61 -148 -113 -235 -48 -81 -139 -202 -157 -209 -29 -11 -140 187 -170 304
-26 99 -18 169 32 272 93 193 312 472 432 549 48 31 51 32 75 23z m-3594 -23
c0 -11 -54 -5 -57 6 -2 5 9 8 27 5 16 -2 30 -7 30 -11z m580 -11 c0 -6 -32
-11 -72 -12 l-73 -2 73 -3 72 -4 0 -34 0 -35 -67 -2 -68 -2 68 -3 c82 -5 89
-23 8 -23 -70 0 -79 9 -88 79 l-6 51 77 0 c44 0 76 -4 76 -10z m-572 -85 c-3
-3 -9 2 -12 12 -6 14 -5 15 5 6 7 -7 10 -15 7 -18z m2057 -4 c99 -56 138 -236
100 -457 -26 -149 -85 -303 -215 -569 -82 -168 -251 -375 -306 -375 -8 0 -25
18 -40 39 -14 22 -42 51 -63 65 -39 27 -132 50 -163 40 -14 -4 -9 14 28 93 48
102 75 198 123 443 50 252 89 385 134 454 58 88 210 236 277 269 56 28 72 28
125 -2z m-1975 -41 c0 -5 -4 -10 -9 -10 -6 0 -13 5 -16 10 -3 6 1 10 9 10 9 0
16 -4 16 -10z m-27 -25 c9 -22 -8 -26 -21 -4 -10 15 -10 19 2 19 8 0 16 -7 19
-15z m35 -52 c-15 -4 -16 -8 -7 -26 10 -21 10 -21 -5 -3 -22 27 -20 36 7 35
16 -1 18 -2 5 -6z m2253 -681 c6 -21 14 -96 16 -169 l5 -132 -56 -107 c-92
-173 -132 -222 -170 -208 -38 15 -41 158 -6 309 5 22 10 56 10 76 0 48 68 186
118 238 46 48 66 47 83 -7z m1718 -62 c23 -12 25 -22 56 -298 14 -122 30 -233
35 -246 12 -33 -13 -64 -104 -125 -197 -132 -407 -229 -420 -195 -29 76 -43
567 -18 651 15 51 51 82 156 135 140 71 253 101 295 78z m-1984 -82 c33 -19
36 -25 31 -52 -3 -17 -12 -67 -20 -111 -9 -44 -15 -99 -16 -123 -1 -109 -91
-191 -243 -222 -69 -14 -87 -5 -87 44 0 24 22 59 104 162 100 126 150 207 175
287 7 20 14 37 16 37 2 0 20 -10 40 -22z"/>
<path d="M7505 11961 c-130 -34 -282 -107 -353 -168 -26 -22 -36 -43 -52 -106
-30 -120 -81 -207 -167 -287 -70 -63 -73 -69 -55 -79 30 -16 207 -13 303 5
373 69 606 252 626 491 7 81 -10 124 -57 148 -40 21 -157 19 -245 -4z"/>
<path d="M6718 11810 c-99 -22 -150 -45 -228 -105 -52 -41 -240 -226 -240
-238 0 -3 27 4 61 14 120 37 270 21 396 -42 53 -27 81 -36 92 -29 24 13 121
133 164 202 65 108 71 178 17 205 -36 18 -161 15 -262 -7z"/>
<path d="M6814 11186 c-23 -24 -47 -61 -54 -83 -40 -123 -159 -303 -330 -498
-47 -53 -86 -100 -88 -105 -5 -12 56 -33 80 -26 63 16 266 175 418 326 137
137 210 238 217 302 5 41 3 46 -41 86 -42 39 -49 42 -102 42 -55 0 -59 -2
-100 -44z"/>
<path d="M5644 11050 c-301 -165 -412 -244 -456 -327 -36 -66 -67 -172 -74
-253 l-7 -67 74 24 c68 23 78 24 128 13 45 -10 64 -22 107 -65 l53 -53 50 53
c138 145 298 473 320 651 4 36 5 80 2 97 l-6 32 -191 -105z"/>
<path d="M9133 10260 c-90 -24 -216 -77 -308 -132 -126 -75 -278 -245 -329
-370 l-16 -37 67 31 c198 89 434 95 560 13 82 -54 175 43 247 257 25 74 34
175 20 213 -18 46 -119 57 -241 25z"/>
<path d="M8070 9770 c-157 -32 -455 -244 -599 -425 -72 -90 -90 -130 -69 -151
24 -24 84 -34 214 -34 142 0 147 -2 221 -108 25 -37 50 -71 54 -76 4 -4 37 2
73 14 l66 22 0 97 c0 190 69 327 225 446 96 74 106 99 60 153 -45 53 -153 80
-245 62z"/>
<path d="M8795 9689 c-96 -14 -186 -45 -306 -105 -242 -122 -355 -299 -347
-547 l3 -92 70 1 c156 2 487 123 669 244 151 102 237 230 238 357 0 63 -2 69
-30 95 -51 45 -179 66 -297 47z"/>
<path d="M4422 9479 c-117 -73 -132 -85 -215 -167 -128 -126 -178 -273 -179
-529 -1 -135 0 -143 25 -186 28 -48 77 -90 132 -113 54 -22 65 -19 65 19 0
107 177 465 325 657 l58 74 -11 53 c-10 51 -71 199 -95 233 -11 16 -20 13
-105 -41z"/>
<path d="M7140 9273 c-42 -15 -141 -69 -185 -102 -251 -183 -457 -460 -483
-649 l-8 -58 86 44 c74 38 96 45 151 46 35 0 75 -2 89 -7 21 -6 28 -2 47 24
44 65 214 246 297 318 81 70 209 164 237 173 8 3 -15 41 -62 104 -41 54 -78
102 -84 106 -11 9 -63 9 -85 1z"/>
<path d="M5028 9151 l-166 -95 27 -40 c89 -131 147 -279 159 -401 l7 -73 54
20 c67 25 125 83 158 156 21 46 27 78 31 166 3 67 0 130 -8 165 -13 61 -62
173 -82 188 -9 7 -62 -19 -180 -86z"/>
<path d="M4636 8989 c-97 -108 -196 -287 -230 -414 -24 -88 -39 -327 -33 -510
6 -158 18 -230 51 -296 l16 -32 -48 -51 c-60 -64 -100 -122 -144 -211 -134
-267 -181 -620 -108 -806 12 -28 18 -60 14 -71 -7 -24 -61 -58 -93 -58 -44 0
-107 46 -131 96 -20 41 -22 53 -14 112 16 117 11 280 -10 355 -18 66 -20 68
-45 62 -50 -13 -147 -79 -217 -150 -80 -81 -128 -166 -145 -258 -21 -115 22
-377 102 -624 48 -148 78 -218 89 -207 4 5 24 59 44 121 46 137 103 257 147
308 49 55 165 133 225 151 47 13 56 13 91 -1 47 -20 85 -55 124 -117 17 -27
33 -48 36 -48 3 0 4 39 2 88 -2 65 2 97 15 127 86 194 146 408 153 546 5 81 1
113 -21 210 -38 160 -43 224 -21 290 29 89 339 681 422 804 31 46 33 55 33
133 0 102 -23 208 -62 285 -26 52 -169 217 -188 217 -5 0 -29 -23 -54 -51z"/>
<path d="M7566 8964 c-100 -18 -198 -60 -279 -117 -83 -59 -222 -207 -270
-288 l-39 -64 8 -130 c12 -191 10 -255 -9 -292 -34 -66 -11 -131 60 -170 l41
-23 17 28 c30 46 182 197 325 322 141 124 188 174 240 256 38 60 70 161 70
221 0 38 6 52 34 84 58 63 66 142 18 168 -33 18 -135 21 -216 5z"/>
<path d="M10175 8706 c-90 -21 -166 -52 -236 -97 -64 -42 -158 -130 -197 -186
l-23 -32 43 -11 c24 -6 126 -38 226 -72 142 -47 192 -59 220 -55 46 8 221 95
285 142 140 104 144 230 9 293 -48 22 -73 27 -162 29 -63 1 -129 -3 -165 -11z"/>
<path d="M8683 8640 c-158 -136 -323 -350 -398 -515 -48 -105 -85 -219 -85
-262 l0 -34 31 18 c58 34 231 250 347 434 103 163 199 373 190 416 -2 10 -30
-9 -85 -57z"/>
<path d="M5608 8653 c18 -2 45 -2 60 0 15 2 0 4 -33 4 -33 0 -45 -2 -27 -4z"/>
<path d="M9473 8525 c-94 -26 -364 -176 -400 -223 -19 -23 -16 -87 6 -130 10
-20 38 -59 61 -85 l43 -48 29 28 c16 15 111 78 211 138 l182 110 6 77 c4 42
10 89 13 104 5 18 3 30 -6 35 -19 13 -86 10 -145 -6z"/>
<path d="M5523 8423 c26 -2 67 -2 90 0 23 2 2 3 -48 3 -49 0 -68 -1 -42 -3z"/>
<path d="M4045 8411 c-88 -40 -178 -166 -225 -316 -45 -142 -37 -396 17 -570
27 -85 68 -175 81 -175 4 1 25 39 46 85 21 46 65 117 97 157 59 74 165 163
207 174 21 6 22 11 22 100 0 184 -36 408 -80 493 -36 72 -87 88 -165 52z"/>
<path d="M6620 8404 c-149 -41 -279 -130 -347 -237 -15 -23 -52 -103 -83 -177
-61 -148 -110 -230 -170 -284 -22 -20 -40 -44 -40 -55 0 -38 83 -185 135 -238
40 -42 58 -53 82 -53 29 0 34 5 76 93 84 175 168 259 366 368 136 75 198 115
210 137 6 11 16 63 22 115 12 107 0 221 -29 271 -40 68 -118 89 -222 60z"/>
<path d="M9821 8239 c-89 -11 -189 -43 -291 -92 -72 -35 -100 -56 -186 -143
-174 -176 -305 -353 -308 -417 l-1 -32 59 -3 c139 -7 421 121 591 269 28 24
112 108 188 186 146 151 157 173 117 213 -11 11 -33 20 -49 20 -16 0 -35 2
-43 4 -7 2 -42 0 -77 -5z"/>
<path d="M8917 8126 c-229 -94 -505 -343 -609 -551 -28 -55 -52 -185 -35 -185
3 0 52 24 107 53 113 58 123 59 325 43 l100 -8 48 31 c124 80 216 357 187 561
-5 36 -10 68 -10 73 0 14 -56 6 -113 -17z"/>
<path d="M7601 8016 c-158 -141 -285 -331 -366 -550 -52 -140 -284 -1060 -271
-1074 6 -5 182 23 215 36 20 7 28 25 52 121 37 150 101 280 168 346 86 83 125
194 176 498 24 145 86 658 80 665 -2 2 -26 -17 -54 -42z"/>
<path d="M5382 8023 c37 -2 100 -2 140 0 40 1 10 3 -67 3 -77 0 -110 -1 -73
-3z"/>
<path d="M6883 7796 c-157 -38 -339 -186 -470 -381 -113 -167 -152 -314 -119
-445 36 -142 90 -300 102 -300 23 0 140 46 188 74 69 40 170 139 221 216 106
160 168 376 195 680 6 69 14 135 17 148 5 20 2 22 -38 21 -24 0 -68 -6 -96
-13z"/>
<path d="M8172 7647 c-52 -20 -155 -101 -224 -179 -109 -122 -198 -241 -198
-264 0 -57 59 -161 97 -170 33 -9 79 24 215 155 l115 110 -19 58 c-25 73 -20
118 26 224 19 43 31 79 28 78 -4 0 -22 -6 -40 -12z"/>
<path d="M5238 7473 c56 -2 148 -2 205 0 56 1 10 3 -103 3 -113 0 -159 -2
-102 -3z"/>
<path d="M5243 7433 c53 -2 141 -2 195 0 53 1 9 3 -98 3 -107 0 -151 -2 -97
-3z"/>
<path d="M5808 7362 c-91 -165 -128 -241 -159 -331 -34 -97 -27 -99 64 -21
143 125 214 145 328 94 58 -26 60 -27 80 -8 32 29 49 69 49 115 0 35 -6 47
-36 75 -19 19 -45 34 -57 34 -53 0 -127 78 -159 167 -7 18 -14 33 -18 33 -3 0
-44 -71 -92 -158z"/>
<path d="M8466 7339 c-102 -25 -247 -128 -352 -251 -92 -106 -188 -326 -259
-591 l-24 -87 52 44 c125 105 242 153 352 143 35 -3 80 -13 100 -22 l37 -15
52 41 c28 22 104 93 169 157 147 145 182 206 181 316 0 53 -6 82 -22 112 -63
123 -173 181 -286 153z"/>
<path d="M5887 6955 c-333 -117 -467 -441 -358 -868 23 -86 73 -211 99 -245
l18 -24 34 69 c78 159 311 323 505 356 l64 11 13 55 c17 77 17 322 -1 391 -33
131 -99 237 -168 266 -48 21 -129 17 -206 -11z"/>
<path d="M4833 6933 c48 -2 126 -2 175 0 48 1 8 3 -88 3 -96 0 -136 -2 -87 -3z"/>
<path d="M7660 6919 c-241 -131 -302 -234 -317 -537 l-6 -114 54 7 c47 5 62 2
118 -25 35 -16 76 -40 92 -51 l30 -21 34 75 c19 41 47 114 62 163 26 85 27 99
28 299 0 124 -4 217 -10 227 -9 16 -17 13 -85 -23z"/>
<path d="M5390 6880 c20 -13 100 -13 100 0 0 6 -26 10 -57 10 -41 0 -54 -3
-43 -10z"/>
<path d="M5293 6562 c-104 -83 -214 -224 -261 -336 -22 -53 -26 -75 -25 -166
0 -113 13 -163 59 -234 25 -38 27 -38 79 -34 63 5 204 70 252 115 32 30 32 32
19 64 -15 35 -31 184 -41 374 -9 177 -17 255 -25 255 -5 0 -30 -17 -57 -38z"/>
<path d="M6852 6599 c-130 -22 -186 -74 -297 -273 -21 -38 -53 -88 -72 -112
l-33 -44 49 -84 c102 -180 134 -359 93 -523 -43 -170 -123 -304 -323 -543 -67
-80 -131 -158 -143 -175 -20 -29 -21 -39 -20 -335 2 -529 47 -927 106 -938 39
-7 43 28 44 388 1 457 8 489 177 824 43 87 106 197 138 245 l58 88 5 189 c8
326 50 527 226 1083 34 106 64 199 67 207 6 16 2 16 -75 3z"/>
<path d="M8151 6460 c-102 -47 -281 -207 -359 -322 -32 -46 -157 -390 -223
-612 l-29 -100 32 -33 c28 -29 38 -33 84 -33 29 0 66 5 81 12 135 58 388 330
527 567 92 156 133 321 106 421 -7 27 -26 59 -50 82 -32 33 -44 38 -81 38 -24
0 -64 -9 -88 -20z"/>
<path d="M4117 6326 c-100 -27 -190 -111 -247 -231 -48 -101 -63 -177 -64
-315 0 -142 21 -239 77 -344 30 -57 120 -166 137 -166 4 0 11 12 15 28 15 62
88 233 114 269 33 46 89 76 142 76 l38 0 8 66 c4 36 8 140 7 231 -1 240 -34
354 -110 386 -40 17 -54 17 -117 0z"/>
<path d="M7118 6280 c-156 -118 -263 -275 -324 -476 -24 -79 -27 -106 -28
-244 -1 -160 10 -226 52 -323 l18 -41 28 165 c32 188 75 361 107 434 29 65 61
111 163 235 96 116 116 152 116 207 0 30 -7 46 -28 66 -15 15 -30 27 -33 27
-2 0 -34 -23 -71 -50z"/>
<path d="M4733 6023 c20 -2 54 -2 75 0 20 2 3 4 -38 4 -41 0 -58 -2 -37 -4z"/>
<path d="M6133 6075 c-137 -42 -287 -208 -357 -397 -69 -183 -151 -632 -119
-651 20 -12 256 -48 279 -43 40 10 160 132 215 218 92 144 164 326 204 513 22
102 24 269 4 310 -28 59 -128 81 -226 50z"/>
<path d="M12175 5964 c-175 -32 -464 -149 -615 -249 -99 -66 -182 -161 -235
-270 -25 -49 -47 -102 -51 -117 l-6 -28 64 30 c96 45 198 57 358 42 l130 -12
294 181 294 181 -15 51 c-43 145 -78 208 -116 206 -12 0 -58 -7 -102 -15z"/>
<path d="M5295 5746 c-129 -60 -271 -270 -330 -486 -25 -93 -32 -356 -12 -475
39 -238 125 -395 217 -395 38 0 47 15 76 121 33 126 78 252 137 389 27 63 67
157 89 209 111 261 122 515 25 609 -60 58 -121 66 -202 28z"/>
<path d="M10838 5610 c-116 -21 -234 -75 -338 -155 -80 -62 -184 -177 -214
-238 -44 -87 -30 -177 27 -177 9 0 56 11 103 25 100 29 181 32 227 9 18 -9 58
-41 89 -70 31 -30 65 -54 76 -54 30 0 105 55 171 125 186 200 248 395 150 477
-61 51 -189 77 -291 58z"/>
<path d="M12459 5586 c-86 -30 -208 -105 -334 -204 -88 -68 -100 -82 -98 -106
3 -42 46 -100 89 -121 85 -40 197 0 375 134 226 170 275 272 150 309 -57 18
-109 14 -182 -12z"/>
<path d="M4805 5460 c-4 -6 20 -10 64 -10 41 0 71 4 71 10 0 6 -28 10 -64 10
-36 0 -68 -4 -71 -10z"/>
<path d="M4252 5365 c-80 -160 -85 -189 -87 -465 -1 -225 -2 -249 -21 -290
-38 -82 -72 -90 -102 -23 -14 32 -17 79 -20 288 l-2 249 -28 29 c-76 80 -187
89 -279 20 -121 -89 -148 -338 -64 -576 19 -56 143 -293 229 -439 l39 -68 36
74 c55 111 111 189 182 253 72 66 201 141 217 125 6 -6 -22 -73 -81 -193 -143
-292 -201 -512 -172 -652 26 -123 137 -284 236 -342 91 -54 199 -40 286 35
l47 40 -31 87 c-30 88 -30 89 -32 323 -2 208 -5 243 -24 308 -24 81 -67 173
-113 240 -21 31 -27 46 -19 55 15 19 59 195 72 294 15 110 6 243 -22 325 -26
80 -142 305 -178 349 l-28 34 -41 -80z"/>
<path d="M11561 5190 c-156 -33 -333 -121 -522 -261 -224 -166 -310 -323 -250
-454 29 -63 54 -80 120 -80 45 1 76 10 161 49 58 27 147 66 199 87 168 69 320
158 452 266 78 62 113 110 134 179 8 27 29 72 46 98 38 56 34 70 -27 101 -31
16 -62 20 -154 22 -63 1 -135 -2 -159 -7z"/>
<path d="M4738 5193 c6 -2 18 -2 25 0 6 3 1 5 -13 5 -14 0 -19 -2 -12 -5z"/>
<path d="M6850 5043 c-150 -88 -318 -297 -409 -512 -74 -174 -97 -376 -54
-471 11 -25 29 -53 40 -63 19 -17 20 -16 43 32 40 86 112 139 171 126 15 -3
62 -31 105 -61 43 -30 84 -54 91 -54 7 0 20 11 28 24 14 21 14 32 4 84 -12 59
-12 60 44 238 82 260 100 385 77 534 -11 65 -46 152 -65 157 -6 2 -39 -14 -75
-34z"/>
<path d="M10397 4970 c-46 -12 -127 -52 -187 -94 -110 -75 -378 -363 -426
-458 -50 -99 -24 -192 66 -233 41 -19 42 -19 53 1 25 45 128 139 221 203 136
92 149 98 303 137 150 37 184 55 241 120 68 76 78 172 26 241 -51 68 -196 108
-297 83z"/>
<path d="M5767 4890 c-156 -39 -294 -193 -367 -411 -75 -221 -79 -490 -10
-646 17 -39 18 -49 7 -60 -33 -33 -211 105 -256 200 -21 42 -23 59 -19 135 4
58 12 103 26 134 l21 48 -57 -29 c-95 -49 -162 -126 -196 -226 -56 -165 -12
-519 89 -731 58 -121 86 -144 168 -143 34 0 79 6 100 12 38 12 39 13 86 142
58 160 127 315 224 505 120 237 248 568 302 781 32 126 42 247 23 271 -16 22
-89 31 -141 18z"/>
<path d="M9652 4520 c-201 -118 -312 -223 -312 -295 0 -12 5 -12 34 0 34 14
117 29 229 41 57 5 57 6 57 39 0 33 48 183 76 238 8 15 11 27 7 26 -5 0 -45
-22 -91 -49z"/>
<path d="M10558 4414 c-170 -37 -426 -147 -531 -229 -93 -74 -109 -106 -117
-238 -7 -119 -10 -129 -84 -251 -68 -113 -43 -157 78 -135 115 20 376 164 492
271 147 135 254 361 254 535 0 71 6 68 -92 47z"/>
<path d="M7111 4221 c-61 -60 -148 -191 -157 -236 -3 -20 0 -53 10 -82 56
-175 45 -296 -58 -600 -25 -73 -41 -133 -36 -133 5 0 39 10 75 21 l66 22 23
-22 c24 -22 25 -22 52 -5 83 55 206 258 262 434 43 134 55 209 56 335 1 215
-62 315 -198 315 -40 0 -50 -5 -95 -49z"/>
<path d="M9483 4145 c-223 -48 -452 -289 -518 -546 -25 -94 -17 -265 14 -336
l23 -52 37 47 c107 135 315 269 593 382 54 22 58 26 86 89 58 126 82 248 63
317 -26 98 -135 134 -298 99z"/>
<path d="M9028 4014 c-193 -46 -398 -230 -495 -441 -30 -66 -40 -140 -23 -172
28 -54 128 -78 188 -47 34 18 85 72 105 111 8 17 23 57 32 90 22 77 49 128
146 288 75 122 113 188 107 186 -2 0 -29 -7 -60 -15z"/>
<path d="M6675 3979 c-128 -39 -306 -289 -354 -499 -43 -188 -56 -386 -27
-425 14 -19 15 -19 70 4 96 40 125 17 175 -137 16 -50 32 -96 36 -102 21 -34
88 100 140 281 119 411 133 840 30 879 -30 11 -30 11 -70 -1z"/>
<path d="M9511 3490 c-30 -17 -97 -62 -150 -102 -222 -167 -303 -289 -396
-594 -64 -212 -82 -339 -47 -346 67 -14 222 42 359 131 165 107 299 252 364
397 87 193 106 449 39 522 -31 33 -100 30 -169 -8z"/>
<path d="M5053 2963 c15 -2 37 -2 50 0 12 2 0 4 -28 4 -27 0 -38 -2 -22 -4z"/>
<path d="M8715 3236 c-123 -64 -235 -147 -356 -266 -144 -142 -219 -261 -250
-398 -16 -73 -13 -296 5 -375 19 -79 29 -102 64 -139 44 -48 61 -39 203 97
125 120 237 213 325 268 l41 26 41 213 c54 278 66 373 59 483 -8 147 -14 151
-132 91z"/>
<path d="M6870 3021 c-176 -181 -255 -355 -341 -759 -17 -81 -35 -155 -40
-164 -11 -21 -30 -23 -47 -6 -30 30 -2 253 53 426 14 44 25 101 25 134 0 75
-37 190 -91 280 l-42 72 -90 -94 c-224 -237 -329 -475 -313 -715 13 -206 72
-396 124 -403 16 -3 58 23 143 87 152 116 208 145 260 136 51 -9 121 -56 153
-105 14 -22 33 -40 42 -40 28 0 126 104 195 209 165 249 259 509 259 715 0
151 -41 241 -131 286 -62 32 -75 27 -159 -59z"/>
<path d="M4933 2563 c32 -2 81 -2 110 0 29 2 3 3 -58 3 -60 0 -84 -1 -52 -3z"/>
<path d="M8765 2287 c-150 -81 -314 -215 -392 -320 -31 -43 -51 -87 -74 -160
-17 -56 -75 -215 -130 -354 -55 -138 -103 -272 -108 -297 l-8 -46 36 0 c90 1
227 86 359 224 204 213 407 621 420 848 6 101 -1 138 -26 138 -9 0 -44 -15
-77 -33z"/>
<path d="M4372 2158 c19 -28 64 -39 54 -13 -3 9 -6 21 -6 26 0 5 -14 9 -31 9
-30 0 -31 -1 -17 -22z"/>
<path d="M8015 1992 c-149 -108 -397 -445 -447 -606 -19 -63 -20 -77 -9 -145
6 -41 26 -109 44 -151 36 -81 102 -190 116 -190 24 0 144 177 208 305 59 117
77 179 133 442 38 178 50 253 48 302 -3 62 -4 66 -28 69 -16 2 -41 -8 -65 -26z"/>
<path d="M6437 1899 c-56 -29 -192 -163 -248 -243 -31 -43 -57 -96 -70 -138
-22 -76 -74 -301 -84 -362 -17 -114 -71 -318 -100 -376 -53 -107 -53 -106 2
-115 68 -10 115 -37 164 -95 l42 -50 29 18 c50 28 180 187 241 294 31 53 123
261 174 392 98 253 105 530 16 637 -51 60 -102 72 -166 38z"/>
<path d="M8484 1038 c-103 -15 -303 -117 -340 -172 -22 -35 -32 -217 -22 -420
10 -209 17 -250 45 -254 41 -6 397 193 456 256 28 29 28 32 18 84 -6 29 -22
151 -36 271 -13 120 -27 222 -30 226 -8 14 -38 17 -91 9z"/>
<path d="M6530 11974 c0 -41 4 -63 10 -59 6 3 10 33 10 66 0 33 -4 59 -10 59
-6 0 -10 -29 -10 -66z"/>
</g>
</svg>
